<svg width="330" height="157" viewBox="0 0 330 157" fill="none" xmlns="http://www.w3.org/2000/svg">
<path d="M83.7688 24.8789C83.7167 24.6576 83.632 24.0456 83.5148 23.043C83.4107 22.2096 83.3195 21.5195 83.2414 20.9727C83.1242 21.6237 82.955 22.2747 82.7336 22.9258C82.5253 23.5768 82.2583 24.2409 81.9328 24.918L74.4523 40.1523L66.9719 24.6055C66.6594 23.9674 66.3859 23.349 66.1516 22.75C65.9302 22.151 65.7349 21.5586 65.5656 20.9727C65.5526 21.5716 65.5005 22.2031 65.4094 22.8672C65.3313 23.5182 65.2076 24.2018 65.0383 24.918L61.9719 39H57.6945L64.4523 9.19531L72.8898 27.2422C73.0201 27.5286 73.2154 28.0039 73.4758 28.668C73.7492 29.332 74.0747 30.1523 74.4523 31.1289C74.7258 30.3086 75.1555 29.2669 75.7414 28.0039C75.8977 27.6654 76.0148 27.4049 76.093 27.2227L84.3352 9.19531L91.2492 39H86.9328L83.7688 24.8789ZM99.4117 47.7109H95.0563L100.134 37.3984L93.3375 20.4844H98.025L101.423 30.0742C101.619 30.6602 101.788 31.2591 101.931 31.8711C102.088 32.4701 102.211 33.082 102.302 33.707C102.472 33.056 102.875 32.0208 103.513 30.6016L103.611 30.3672L108.181 20.4844H112.771L99.4117 47.7109ZM134.467 29.6836C134.467 31.5716 134.949 33.0951 135.913 34.2539C136.889 35.4128 138.146 35.9922 139.682 35.9922C141.284 35.9922 142.521 35.4583 143.393 34.3906C144.278 33.3229 144.721 31.806 144.721 29.8398C144.721 27.8867 144.259 26.3633 143.334 25.2695C142.423 24.1628 141.166 23.6094 139.565 23.6094C137.963 23.6094 136.713 24.1432 135.815 25.2109C134.916 26.2786 134.467 27.7695 134.467 29.6836ZM134.604 8.72656V23.5117C135.099 22.3398 135.886 21.4349 136.967 20.7969C138.061 20.1589 139.363 19.8398 140.873 19.8398C143.334 19.8398 145.327 20.7513 146.85 22.5742C148.386 24.3841 149.155 26.7669 149.155 29.7227C149.155 32.8346 148.399 35.2891 146.889 37.0859C145.392 38.8698 143.334 39.7617 140.717 39.7617C139.415 39.7617 138.256 39.5013 137.241 38.9805C136.238 38.4596 135.359 37.6654 134.604 36.5977V39H130.366V8.72656H134.604ZM154.876 12.4766C154.876 11.7604 155.136 11.1419 155.657 10.6211C156.191 10.1003 156.822 9.83984 157.552 9.83984C158.307 9.83984 158.932 10.0938 159.427 10.6016C159.934 11.0964 160.188 11.7214 160.188 12.4766C160.188 13.2318 159.934 13.8698 159.427 14.3906C158.919 14.8984 158.294 15.1523 157.552 15.1523C156.822 15.1523 156.191 14.8919 155.657 14.3711C155.136 13.8372 154.876 13.2057 154.876 12.4766ZM155.442 39V20.4844H159.68V39H155.442ZM180.655 29.6836C180.655 27.7695 180.206 26.2786 179.308 25.2109C178.422 24.1432 177.179 23.6094 175.577 23.6094C173.976 23.6094 172.713 24.1628 171.788 25.2695C170.877 26.3633 170.421 27.8867 170.421 29.8398C170.421 31.806 170.864 33.3229 171.749 34.3906C172.635 35.4583 173.885 35.9922 175.499 35.9922C177.023 35.9922 178.26 35.4128 179.21 34.2539C180.174 33.0951 180.655 31.5716 180.655 29.6836ZM184.777 37.8477C184.777 41.4674 184.054 44.013 182.609 45.4844C181.163 46.9688 178.728 47.7109 175.304 47.7109C172.752 47.7109 170.714 47.1706 169.191 46.0898C167.667 45.0221 166.892 43.5964 166.866 41.8125L171.417 41.793C171.482 42.5872 171.853 43.1927 172.53 43.6094C173.208 44.026 174.158 44.2344 175.382 44.2344C177.192 44.2344 178.494 43.8372 179.288 43.043C180.083 42.2487 180.486 40.9206 180.499 39.0586L180.538 36.5977C179.783 37.6654 178.898 38.4596 177.882 38.9805C176.879 39.5013 175.727 39.7617 174.425 39.7617C171.808 39.7617 169.744 38.8698 168.234 37.0859C166.736 35.2891 165.988 32.8346 165.988 29.7227C165.988 26.7669 166.756 24.3841 168.292 22.5742C169.829 20.7513 171.834 19.8398 174.308 19.8398C175.818 19.8398 177.107 20.1589 178.175 20.7969C179.256 21.4219 180.043 22.3268 180.538 23.5117V20.4844H184.777V37.8477ZM205.537 29.6836C205.537 27.7695 205.088 26.2786 204.189 25.2109C203.304 24.1432 202.06 23.6094 200.459 23.6094C198.857 23.6094 197.594 24.1628 196.67 25.2695C195.758 26.3633 195.302 27.8867 195.302 29.8398C195.302 31.806 195.745 33.3229 196.63 34.3906C197.516 35.4583 198.766 35.9922 200.38 35.9922C201.904 35.9922 203.141 35.4128 204.091 34.2539C205.055 33.0951 205.537 31.5716 205.537 29.6836ZM209.658 37.8477C209.658 41.4674 208.935 44.013 207.49 45.4844C206.045 46.9688 203.61 47.7109 200.185 47.7109C197.633 47.7109 195.595 47.1706 194.072 46.0898C192.548 45.0221 191.774 43.5964 191.748 41.8125L196.298 41.793C196.364 42.5872 196.735 43.1927 197.412 43.6094C198.089 44.026 199.039 44.2344 200.263 44.2344C202.073 44.2344 203.375 43.8372 204.17 43.043C204.964 42.2487 205.367 40.9206 205.38 39.0586L205.42 36.5977C204.664 37.6654 203.779 38.4596 202.763 38.9805C201.761 39.5013 200.608 39.7617 199.306 39.7617C196.689 39.7617 194.625 38.8698 193.115 37.0859C191.617 35.2891 190.869 32.8346 190.869 29.7227C190.869 26.7669 191.637 24.3841 193.173 22.5742C194.71 20.7513 196.715 19.8398 199.189 19.8398C200.699 19.8398 201.989 20.1589 203.056 20.7969C204.137 21.4219 204.925 22.3268 205.42 23.5117V20.4844H209.658V37.8477ZM234.949 30.3672H220.145C220.249 32.099 220.763 33.4531 221.688 34.4297C222.612 35.3932 223.842 35.875 225.379 35.875C226.746 35.875 227.885 35.5885 228.797 35.0156C229.708 34.4427 230.503 33.5182 231.18 32.2422L234.754 34.2344C233.712 36.0964 232.423 37.4831 230.887 38.3945C229.35 39.306 227.547 39.7617 225.477 39.7617C222.508 39.7617 220.145 38.8568 218.387 37.0469C216.629 35.237 215.75 32.8216 215.75 29.8008C215.75 26.8971 216.655 24.5143 218.465 22.6523C220.288 20.7773 222.625 19.8398 225.477 19.8398C228.458 19.8398 230.783 20.6927 232.449 22.3984C234.116 24.1042 234.949 26.4935 234.949 29.5664V30.3672ZM230.555 27.5156C230.385 26.1875 229.878 25.1784 229.031 24.4883C228.185 23.7852 227.026 23.4336 225.555 23.4336C224.161 23.4336 223.042 23.7721 222.195 24.4492C221.349 25.1263 220.757 26.1484 220.418 27.5156H230.555ZM238.854 35.6406L242.37 33.7266C242.63 34.651 243.112 35.3542 243.815 35.8359C244.518 36.3177 245.423 36.5586 246.53 36.5586C247.48 36.5586 248.222 36.3438 248.756 35.9141C249.303 35.4714 249.577 34.8724 249.577 34.1172C249.577 33.1146 248.613 32.2552 246.686 31.5391C246.035 31.3047 245.534 31.1094 245.182 30.9531C243.203 30.1328 241.816 29.2995 241.022 28.4531C240.241 27.6068 239.85 26.5781 239.85 25.3672C239.85 23.7135 240.495 22.3724 241.784 21.3438C243.086 20.3151 244.804 19.8008 246.94 19.8008C248.372 19.8008 249.596 20.0677 250.612 20.6016C251.64 21.1224 252.389 21.8711 252.858 22.8477L249.85 24.918C249.629 24.332 249.238 23.8698 248.678 23.5312C248.131 23.1797 247.493 23.0039 246.764 23.0039C245.957 23.0039 245.306 23.1992 244.811 23.5898C244.329 23.9674 244.088 24.4753 244.088 25.1133C244.088 26.0768 245.182 26.9557 247.37 27.75C248.06 27.9974 248.593 28.1992 248.971 28.3555C250.677 29.0326 251.894 29.8008 252.623 30.6602C253.366 31.5065 253.737 32.5677 253.737 33.8438C253.737 35.6927 253.066 37.1445 251.725 38.1992C250.384 39.2409 248.535 39.7617 246.178 39.7617C244.368 39.7617 242.864 39.4232 241.666 38.7461C240.468 38.069 239.531 37.0339 238.854 35.6406ZM260.61 39V24.1953H257.368V20.4844H260.61V13.4727H264.848V20.4844H268.091V24.1953H264.848V39H260.61Z" fill="black"/>
<path d="M0.388496 130C1.7965 129.424 2.7885 128.976 3.3645 128.656C3.9405 128.272 4.3885 127.856 4.7085 127.408C5.4765 126.512 5.8605 124.912 5.8605 122.608V68.56C5.8605 66.256 5.4765 64.656 4.7085 63.76C4.0045 62.864 2.5965 62.032 0.484496 61.264L8.5485 60.688C10.2125 60.688 12.7725 60.592 16.2285 60.4C19.6845 60.208 22.2125 60.112 23.8125 60.112C30.1485 60.112 35.0445 60.368 38.5005 60.88C41.9565 61.392 45.2205 62.416 48.2925 63.952C51.3645 65.424 53.8285 67.696 55.6845 70.768C57.5405 73.84 58.4685 77.296 58.4685 81.136C58.4685 84.464 57.7965 87.568 56.4525 90.448C55.1085 93.328 53.1565 95.792 50.5965 97.84C48.3565 99.568 45.8285 100.816 43.0125 101.584C40.2605 102.352 36.6445 102.736 32.1645 102.736C30.5005 102.736 28.6765 102.608 26.6925 102.352V122.704C26.6925 124.88 26.9805 126.448 27.5565 127.408C28.1965 128.304 29.5085 129.168 31.4925 130H0.388496ZM26.6925 66.064V97.264L27.3645 97.168C29.9245 96.912 31.7485 96.304 32.8365 95.344C33.9245 94.32 34.8525 93.072 35.6205 91.6C36.9005 88.656 37.5405 84.88 37.5405 80.272C37.5405 72.016 36.0365 67.28 33.0285 66.064C32.1965 65.744 31.1085 65.584 29.7645 65.584C28.8685 65.584 27.8445 65.744 26.6925 66.064ZM62.2462 88.912L68.8702 87.664C72.1982 86.896 74.9822 86.064 77.2222 85.168C79.4622 84.272 82.7582 82.672 87.1102 80.368V86.8C90.9502 82.64 94.7262 80.56 98.4382 80.56C100.614 80.56 102.374 81.36 103.718 82.96C105.126 84.496 105.83 86.48 105.83 88.912C105.83 91.216 105.126 93.136 103.718 94.672C102.374 96.144 100.614 96.88 98.4382 96.88C96.2622 96.88 94.7902 96.048 94.0222 94.384L92.9662 91.792C92.5182 91.024 91.9102 90.64 91.1422 90.64C89.5422 90.64 88.1342 91.568 86.9182 93.424V122.704C86.9182 124.88 87.2382 126.448 87.8782 127.408C88.5182 128.368 89.7982 129.232 91.7182 130H62.3422C64.3902 129.232 65.7662 128.368 66.4702 127.408C67.2382 126.384 67.6222 124.816 67.6222 122.704V95.536C67.6222 91.504 65.8302 89.296 62.2462 88.912ZM109.935 105.712C109.935 98.224 112.047 92.144 116.271 87.472C120.559 82.736 126.063 80.368 132.783 80.368C139.439 80.368 144.911 82.736 149.199 87.472C153.487 92.208 155.631 98.288 155.631 105.712C155.631 113.136 153.487 119.216 149.199 123.952C144.911 128.688 139.439 131.056 132.783 131.056C126.127 131.056 120.655 128.688 116.367 123.952C112.079 119.216 109.935 113.136 109.935 105.712ZM128.079 104.656V105.712C128.079 108.272 128.079 110.736 128.079 113.104C128.143 115.472 128.399 118.256 128.847 121.456C129.359 124.592 130.639 126.16 132.687 126.16C134.799 126.16 136.111 124.592 136.623 121.456C136.879 119.664 137.071 117.552 137.199 115.12C137.327 112.688 137.391 109.552 137.391 105.712C137.391 97.392 137.103 91.92 136.527 89.296C135.951 86.608 134.735 85.264 132.879 85.264C130.703 85.264 129.423 86.544 129.039 89.104C128.655 91.6 128.399 93.968 128.271 96.208C128.143 98.448 128.079 101.264 128.079 104.656ZM173.429 144.208C177.845 144.208 180.053 142.16 180.053 138.064C180.053 132.56 176.341 129.808 168.917 129.808L166.709 129.904V95.536C166.709 94.256 166.453 93.008 165.941 91.792C165.493 90.32 163.957 89.36 161.332 88.912L167.957 87.664C171.285 86.896 174.037 86.096 176.213 85.264C178.453 84.368 181.749 82.736 186.101 80.368V133.744C186.101 136.496 185.877 138.704 185.429 140.368C184.981 142.032 184.213 143.536 183.125 144.88C180.565 147.696 176.821 149.104 171.893 149.104C168.053 149.104 165.045 148.4 162.869 146.992C160.692 145.584 159.604 143.664 159.604 141.232C159.604 138.992 160.34 137.232 161.812 135.952C163.285 134.672 165.333 134.032 167.957 134.032C170.069 134.032 171.829 134.608 173.237 135.76C174.709 136.976 175.445 138.48 175.445 140.272C175.445 141.744 174.773 143.056 173.429 144.208ZM164.789 68.56C164.789 65.616 165.685 63.504 167.477 62.224C169.269 60.944 172.181 60.304 176.213 60.304C183.445 60.304 187.061 63.056 187.061 68.56C187.061 71.504 186.165 73.616 184.373 74.896C182.581 76.176 179.669 76.816 175.637 76.816C168.405 76.816 164.789 74.064 164.789 68.56ZM239.085 103.024H213.453V104.464C213.453 109.072 214.637 112.784 217.005 115.6C219.373 118.352 222.541 119.728 226.509 119.728C231.309 119.728 235.533 117.552 239.181 113.2C238.349 118.512 235.981 122.864 232.077 126.256C228.173 129.648 223.533 131.344 218.157 131.344C211.757 131.344 206.509 129.136 202.413 124.72C198.381 120.24 196.365 114.512 196.365 107.536C196.365 99.984 198.541 93.616 202.893 88.432C207.309 83.184 212.717 80.56 219.117 80.56C224.621 80.56 229.325 82.576 233.229 86.608C237.133 90.64 239.085 95.536 239.085 101.296V103.024ZM213.453 98.032H221.901V96.592C221.901 93.2 221.517 90.608 220.749 88.816C220.045 87.024 218.989 86.128 217.581 86.128C214.829 86.128 213.453 89.616 213.453 96.592V98.032ZM287.878 84.4L279.718 98.704C279.718 95.12 278.854 92.016 277.126 89.392C275.462 86.768 273.574 85.456 271.462 85.456C269.414 85.456 267.782 86.8 266.566 89.488C265.414 92.112 264.838 95.792 264.838 100.528C264.838 106.416 265.894 110.96 268.006 114.16C270.118 117.36 273.094 118.96 276.934 118.96C281.222 118.96 285.254 116.432 289.03 111.376C287.942 117.456 285.51 122.32 281.734 125.968C277.958 129.616 273.414 131.44 268.102 131.44C262.086 131.44 257.094 129.2 253.126 124.72C249.158 120.176 247.174 114.448 247.174 107.536C247.174 99.728 249.702 93.232 254.758 88.048C259.814 82.864 266.15 80.272 273.766 80.272C279.078 80.272 283.782 81.648 287.878 84.4ZM290.953 87.28V83.344L296.137 81.712C299.657 80.368 303.113 78.352 306.505 75.664C308.489 73.872 310.217 72.08 311.689 70.288C313.417 68.24 315.177 65.616 316.969 62.416V81.712H329.257V87.28H316.969V118C316.969 119.344 317.257 120.4 317.833 121.168C318.409 121.872 319.241 122.224 320.329 122.224C321.609 122.224 322.921 121.744 324.265 120.784C325.609 119.76 326.665 118.512 327.433 117.04C326.857 121.008 324.969 124.368 321.769 127.12C318.569 129.872 314.921 131.248 310.825 131.248C306.921 131.248 303.721 130.096 301.225 127.792C298.793 125.424 297.577 122.384 297.577 118.672V87.28H290.953Z" fill="#223574"/>
</svg>
