<svg width="456" height="157" viewBox="0 0 456 157" fill="none" xmlns="http://www.w3.org/2000/svg">
<path d="M159.43 27.7695H167.399L164.47 21.2461C164.3 20.8294 164.124 20.3542 163.942 19.8203C163.76 19.2734 163.578 18.668 163.395 18.0039C163.239 18.6289 163.07 19.2148 162.887 19.7617C162.718 20.2956 162.542 20.7904 162.36 21.2461L159.43 27.7695ZM172.282 39L169.04 31.6367H157.712L154.391 39H149.509L163.356 9.27344L177.184 39H172.282ZM181.128 39V20.4844H185.112V23.5117C185.959 22.2357 186.955 21.3047 188.101 20.7188C189.247 20.1328 190.64 19.8398 192.28 19.8398C193.661 19.8398 194.833 20.0612 195.796 20.5039C196.773 20.9336 197.534 21.5781 198.081 22.4375C198.407 22.9453 198.641 23.5378 198.784 24.2148C198.928 24.8919 198.999 26.0768 198.999 27.7695V39H194.722V29.4883C194.722 27.0534 194.422 25.4388 193.823 24.6445C193.237 23.8372 192.189 23.4336 190.679 23.4336C189.689 23.4336 188.804 23.6159 188.023 23.9805C187.254 24.3451 186.649 24.8594 186.206 25.5234C185.894 25.9661 185.672 26.5391 185.542 27.2422C185.425 27.9323 185.366 29.0391 185.366 30.5625V39H181.128ZM220.795 29.8008C220.795 28.082 220.241 26.6302 219.134 25.4453C218.028 24.2474 216.673 23.6484 215.072 23.6484C213.483 23.6484 212.129 24.2474 211.009 25.4453C209.903 26.6302 209.349 28.082 209.349 29.8008C209.349 31.5195 209.903 32.9779 211.009 34.1758C212.129 35.3607 213.483 35.9531 215.072 35.9531C216.66 35.9531 218.008 35.3607 219.115 34.1758C220.235 32.9779 220.795 31.5195 220.795 29.8008ZM204.877 29.7617C204.877 28.4076 205.13 27.1315 205.638 25.9336C206.159 24.7227 206.901 23.6484 207.865 22.7109C208.815 21.7865 209.909 21.0768 211.146 20.582C212.383 20.0872 213.679 19.8398 215.033 19.8398C216.426 19.8398 217.735 20.0872 218.959 20.582C220.196 21.0768 221.302 21.806 222.279 22.7695C223.255 23.7201 223.998 24.7943 224.505 25.9922C225.013 27.1901 225.267 28.4466 225.267 29.7617C225.267 31.1289 225.013 32.4115 224.505 33.6094C224.011 34.8073 223.282 35.8685 222.318 36.793C221.302 37.7695 220.176 38.5052 218.939 39C217.702 39.5078 216.4 39.7617 215.033 39.7617C213.692 39.7617 212.403 39.5078 211.166 39C209.929 38.5052 208.828 37.7826 207.865 36.832C206.888 35.8685 206.146 34.7878 205.638 33.5898C205.13 32.3919 204.877 31.1159 204.877 29.7617ZM232.355 39V24.1953H229.113V20.4844H232.355V13.4727H236.594V20.4844H239.836V24.1953H236.594V39H232.355ZM245.108 39V8.72656H249.092V23.5117C249.939 22.2357 250.935 21.3047 252.08 20.7188C253.226 20.1328 254.62 19.8398 256.26 19.8398C257.64 19.8398 258.812 20.0612 259.776 20.5039C260.752 20.9336 261.514 21.5781 262.061 22.4375C262.386 22.9453 262.621 23.5378 262.764 24.2148C262.907 24.8919 262.979 26.0768 262.979 27.7695V39H258.702V29.4883C258.702 27.0534 258.402 25.4388 257.803 24.6445C257.217 23.8372 256.169 23.4336 254.659 23.4336C253.669 23.4336 252.784 23.6159 252.002 23.9805C251.234 24.3451 250.629 24.8594 250.186 25.5234C249.873 25.9661 249.652 26.5391 249.522 27.2422C249.405 27.9323 249.346 29.0391 249.346 30.5625V39H245.108ZM288.055 30.3672H273.251C273.355 32.099 273.869 33.4531 274.794 34.4297C275.718 35.3932 276.949 35.875 278.485 35.875C279.852 35.875 280.992 35.5885 281.903 35.0156C282.815 34.4427 283.609 33.5182 284.286 32.2422L287.86 34.2344C286.818 36.0964 285.529 37.4831 283.993 38.3945C282.457 39.306 280.653 39.7617 278.583 39.7617C275.614 39.7617 273.251 38.8568 271.493 37.0469C269.735 35.237 268.856 32.8216 268.856 29.8008C268.856 26.8971 269.761 24.5143 271.571 22.6523C273.394 20.7773 275.731 19.8398 278.583 19.8398C281.565 19.8398 283.889 20.6927 285.555 22.3984C287.222 24.1042 288.055 26.4935 288.055 29.5664V30.3672ZM283.661 27.5156C283.492 26.1875 282.984 25.1784 282.137 24.4883C281.291 23.7852 280.132 23.4336 278.661 23.4336C277.268 23.4336 276.148 23.7721 275.302 24.4492C274.455 25.1263 273.863 26.1484 273.524 27.5156H283.661ZM298.327 23.4336C298.783 22.2096 299.382 21.3047 300.124 20.7188C300.879 20.1328 301.81 19.8398 302.917 19.8398C303.516 19.8398 304.102 19.9115 304.675 20.0547C305.261 20.1979 305.834 20.4062 306.394 20.6797L304.87 24.2734C304.506 24.013 304.109 23.8242 303.679 23.707C303.262 23.5768 302.793 23.5117 302.273 23.5117C300.866 23.5117 299.857 24.0781 299.245 25.2109C298.633 26.3307 298.327 28.2188 298.327 30.875V39H294.089V20.4453H298.327V23.4336Z" fill="black"/>
<path d="M0.394126 130C1.80213 129.424 2.79413 128.976 3.37013 128.656C3.94613 128.272 4.39413 127.856 4.71413 127.408C5.48213 126.512 5.86613 124.912 5.86613 122.608V68.56C5.86613 66.256 5.48213 64.656 4.71413 63.76C4.01013 62.864 2.60213 62.032 0.490126 61.264L8.55413 60.688C10.2181 60.688 12.7781 60.592 16.2341 60.4C19.6901 60.208 22.2181 60.112 23.8181 60.112C30.1541 60.112 35.0501 60.368 38.5061 60.88C41.9621 61.392 45.2261 62.416 48.2981 63.952C51.3701 65.424 53.8341 67.696 55.6901 70.768C57.5461 73.84 58.4741 77.296 58.4741 81.136C58.4741 84.464 57.8021 87.568 56.4581 90.448C55.1141 93.328 53.1621 95.792 50.6021 97.84C48.3621 99.568 45.8341 100.816 43.0181 101.584C40.2661 102.352 36.6501 102.736 32.1701 102.736C30.5061 102.736 28.6821 102.608 26.6981 102.352V122.704C26.6981 124.88 26.9861 126.448 27.5621 127.408C28.2021 128.304 29.5141 129.168 31.4981 130H0.394126ZM26.6981 66.064V97.264L27.3701 97.168C29.9301 96.912 31.7541 96.304 32.8421 95.344C33.9301 94.32 34.8581 93.072 35.6261 91.6C36.9061 88.656 37.5461 84.88 37.5461 80.272C37.5461 72.016 36.0421 67.28 33.0341 66.064C32.2021 65.744 31.1141 65.584 29.7701 65.584C28.8741 65.584 27.8501 65.744 26.6981 66.064ZM61.0069 105.712C61.0069 98.224 63.1189 92.144 67.3429 87.472C71.6309 82.736 77.1349 80.368 83.8549 80.368C90.5109 80.368 95.9829 82.736 100.271 87.472C104.559 92.208 106.703 98.288 106.703 105.712C106.703 113.136 104.559 119.216 100.271 123.952C95.9829 128.688 90.5109 131.056 83.8549 131.056C77.1989 131.056 71.7269 128.688 67.4389 123.952C63.1509 119.216 61.0069 113.136 61.0069 105.712ZM79.1509 104.656V105.712C79.1509 108.272 79.1509 110.736 79.1509 113.104C79.2149 115.472 79.4709 118.256 79.9189 121.456C80.4309 124.592 81.7109 126.16 83.7589 126.16C85.8709 126.16 87.1829 124.592 87.6949 121.456C87.9509 119.664 88.1429 117.552 88.2709 115.12C88.3989 112.688 88.4629 109.552 88.4629 105.712C88.4629 97.392 88.1749 91.92 87.5989 89.296C87.0229 86.608 85.8069 85.264 83.9509 85.264C81.7749 85.264 80.4949 86.544 80.1109 89.104C79.7269 91.6 79.4709 93.968 79.3429 96.208C79.2149 98.448 79.1509 101.264 79.1509 104.656ZM112.404 88.912L119.028 87.664C122.356 86.896 125.14 86.064 127.38 85.168C129.62 84.272 132.916 82.672 137.268 80.368V86.8C141.108 82.64 144.884 80.56 148.596 80.56C150.772 80.56 152.532 81.36 153.876 82.96C155.284 84.496 155.988 86.48 155.988 88.912C155.988 91.216 155.284 93.136 153.876 94.672C152.532 96.144 150.772 96.88 148.596 96.88C146.42 96.88 144.948 96.048 144.18 94.384L143.124 91.792C142.676 91.024 142.068 90.64 141.3 90.64C139.7 90.64 138.292 91.568 137.076 93.424V122.704C137.076 124.88 137.396 126.448 138.036 127.408C138.676 128.368 139.956 129.232 141.876 130H112.5C114.548 129.232 115.924 128.368 116.628 127.408C117.396 126.384 117.78 124.816 117.78 122.704V95.536C117.78 91.504 115.988 89.296 112.404 88.912ZM159.626 87.28V83.344L164.81 81.712C168.33 80.368 171.786 78.352 175.178 75.664C177.162 73.872 178.89 72.08 180.362 70.288C182.09 68.24 183.85 65.616 185.642 62.416V81.712H197.93V87.28H185.642V118C185.642 119.344 185.93 120.4 186.506 121.168C187.082 121.872 187.914 122.224 189.002 122.224C190.282 122.224 191.594 121.744 192.938 120.784C194.282 119.76 195.338 118.512 196.106 117.04C195.53 121.008 193.642 124.368 190.442 127.12C187.242 129.872 183.594 131.248 179.498 131.248C175.594 131.248 172.394 130.096 169.898 127.792C167.466 125.424 166.25 122.384 166.25 118.672V87.28H159.626ZM200.964 105.712C200.964 98.224 203.076 92.144 207.3 87.472C211.588 82.736 217.092 80.368 223.812 80.368C230.468 80.368 235.94 82.736 240.228 87.472C244.516 92.208 246.66 98.288 246.66 105.712C246.66 113.136 244.516 119.216 240.228 123.952C235.94 128.688 230.468 131.056 223.812 131.056C217.156 131.056 211.684 128.688 207.396 123.952C203.108 119.216 200.964 113.136 200.964 105.712ZM219.108 104.656V105.712C219.108 108.272 219.108 110.736 219.108 113.104C219.172 115.472 219.428 118.256 219.876 121.456C220.388 124.592 221.668 126.16 223.716 126.16C225.828 126.16 227.14 124.592 227.652 121.456C227.908 119.664 228.1 117.552 228.228 115.12C228.356 112.688 228.42 109.552 228.42 105.712C228.42 97.392 228.132 91.92 227.556 89.296C226.98 86.608 225.764 85.264 223.908 85.264C221.732 85.264 220.452 86.544 220.068 89.104C219.684 91.6 219.428 93.968 219.3 96.208C219.172 98.448 219.108 101.264 219.108 104.656ZM252.842 130C254.826 129.104 256.138 128.208 256.778 127.312C257.418 126.352 257.738 124.816 257.738 122.704V87.28H252.938V81.712H257.738V73.456C257.738 69.104 259.018 65.712 261.578 63.28C264.202 60.784 267.85 59.536 272.522 59.536C275.914 59.536 278.73 60.336 280.97 61.936C283.21 63.536 284.33 65.552 284.33 67.984C284.33 69.904 283.53 71.568 281.93 72.976C280.394 74.32 278.506 74.992 276.266 74.992C274.09 74.992 272.266 74.416 270.794 73.264C269.322 72.112 268.586 70.64 268.586 68.848C268.586 67.248 269.29 65.84 270.698 64.624C268.33 64.624 266.57 65.2 265.418 66.352C264.33 67.44 263.786 69.04 263.786 71.152C263.786 74.096 265.322 76.592 268.394 78.64C271.466 80.688 275.21 81.712 279.626 81.712H283.658V87.28H277.13V122.704C277.13 124.88 277.418 126.448 277.994 127.408C278.634 128.304 279.946 129.168 281.93 130H252.842ZM287.676 105.712C287.676 98.224 289.788 92.144 294.012 87.472C298.3 82.736 303.804 80.368 310.524 80.368C317.18 80.368 322.652 82.736 326.94 87.472C331.228 92.208 333.372 98.288 333.372 105.712C333.372 113.136 331.228 119.216 326.94 123.952C322.652 128.688 317.18 131.056 310.524 131.056C303.868 131.056 298.396 128.688 294.108 123.952C289.82 119.216 287.676 113.136 287.676 105.712ZM305.82 104.656V105.712C305.82 108.272 305.82 110.736 305.82 113.104C305.884 115.472 306.14 118.256 306.588 121.456C307.1 124.592 308.38 126.16 310.428 126.16C312.54 126.16 313.852 124.592 314.364 121.456C314.62 119.664 314.812 117.552 314.94 115.12C315.068 112.688 315.132 109.552 315.132 105.712C315.132 97.392 314.844 91.92 314.268 89.296C313.692 86.608 312.476 85.264 310.62 85.264C308.444 85.264 307.164 86.544 306.78 89.104C306.396 91.6 306.14 93.968 306.012 96.208C305.884 98.448 305.82 101.264 305.82 104.656ZM345.601 67.12C348.865 66.48 351.713 65.648 354.145 64.624C356.577 63.6 359.777 61.872 363.745 59.44V122.704C363.745 124.944 364.001 126.512 364.513 127.408C365.089 128.24 366.401 129.104 368.449 130H339.073C341.313 129.04 342.753 128.144 343.393 127.312C344.033 126.416 344.353 124.88 344.353 122.704V75.088C344.353 73.04 343.841 71.344 342.817 70C341.793 68.656 340.513 67.984 338.977 67.984C340.513 67.856 341.633 67.76 342.337 67.696C343.041 67.568 344.129 67.376 345.601 67.12ZM371.882 88.912L378.41 87.664C381.866 86.832 384.65 86 386.762 85.168C388.874 84.336 392.138 82.736 396.554 80.368V122.704C396.554 124.944 396.81 126.48 397.322 127.312C397.898 128.08 399.242 128.976 401.354 130H371.978C374.218 129.104 375.658 128.208 376.298 127.312C376.938 126.416 377.258 124.88 377.258 122.704V95.536C377.258 94.192 377.002 92.944 376.49 91.792C375.978 90.32 374.442 89.36 371.882 88.912ZM375.338 68.56C375.338 65.616 376.202 63.504 377.93 62.224C379.658 60.944 382.57 60.304 386.666 60.304C390.506 60.304 393.258 60.944 394.922 62.224C396.65 63.504 397.514 65.584 397.514 68.464C397.514 71.472 396.65 73.616 394.922 74.896C393.194 76.176 390.282 76.816 386.186 76.816C378.954 76.816 375.338 74.064 375.338 68.56ZM407.664 105.712C407.664 98.224 409.776 92.144 414 87.472C418.288 82.736 423.792 80.368 430.512 80.368C437.168 80.368 442.64 82.736 446.928 87.472C451.216 92.208 453.36 98.288 453.36 105.712C453.36 113.136 451.216 119.216 446.928 123.952C442.64 128.688 437.168 131.056 430.512 131.056C423.856 131.056 418.384 128.688 414.096 123.952C409.808 119.216 407.664 113.136 407.664 105.712ZM425.808 104.656V105.712C425.808 108.272 425.808 110.736 425.808 113.104C425.872 115.472 426.128 118.256 426.576 121.456C427.088 124.592 428.368 126.16 430.416 126.16C432.528 126.16 433.84 124.592 434.352 121.456C434.608 119.664 434.8 117.552 434.928 115.12C435.056 112.688 435.12 109.552 435.12 105.712C435.12 97.392 434.832 91.92 434.256 89.296C433.68 86.608 432.464 85.264 430.608 85.264C428.432 85.264 427.152 86.544 426.768 89.104C426.384 91.6 426.128 93.968 426 96.208C425.872 98.448 425.808 101.264 425.808 104.656Z" fill="#223574"/>
</svg>
