<svg width="254" height="157" viewBox="0 0 254 157" fill="none" xmlns="http://www.w3.org/2000/svg">
<path d="M45.1148 33.2773L48.8258 31.5586C49.1773 32.8346 49.8219 33.8112 50.7594 34.4883C51.6969 35.1523 52.8948 35.4844 54.3531 35.4844C55.7333 35.4844 56.8271 35.1003 57.6344 34.332C58.4547 33.5638 58.8648 32.5352 58.8648 31.2461C58.8648 29.5664 57.4716 28.069 54.6852 26.7539C54.2945 26.5586 53.9951 26.4154 53.7867 26.3242C50.6357 24.7878 48.5328 23.401 47.4781 22.1641C46.4365 20.9141 45.9156 19.3906 45.9156 17.5938C45.9156 15.263 46.7034 13.375 48.2789 11.9297C49.8674 10.4844 51.9443 9.76172 54.5094 9.76172C56.6188 9.76172 58.3831 10.1719 59.8023 10.9922C61.2216 11.7995 62.2047 12.9648 62.7516 14.4883L59.1188 16.3633C58.5458 15.4648 57.9143 14.8073 57.2242 14.3906C56.5471 13.974 55.7659 13.7656 54.8805 13.7656C53.6305 13.7656 52.6344 14.0911 51.8922 14.7422C51.163 15.3932 50.7984 16.2656 50.7984 17.3594C50.7984 19.0781 52.413 20.6797 55.6422 22.1641C55.8896 22.2812 56.0849 22.3724 56.2281 22.4375C59.0536 23.7396 60.9938 25.0156 62.0484 26.2656C63.1031 27.5026 63.6305 29.0521 63.6305 30.9141C63.6305 33.6224 62.7776 35.7773 61.0719 37.3789C59.3661 38.9674 57.0615 39.7617 54.1578 39.7617C51.7229 39.7617 49.7242 39.2018 48.1617 38.082C46.6122 36.9622 45.5966 35.3607 45.1148 33.2773ZM87.7891 30.3672H72.9844C73.0885 32.099 73.6029 33.4531 74.5273 34.4297C75.4518 35.3932 76.6823 35.875 78.2188 35.875C79.5859 35.875 80.7253 35.5885 81.6367 35.0156C82.5482 34.4427 83.3424 33.5182 84.0195 32.2422L87.5938 34.2344C86.5521 36.0964 85.263 37.4831 83.7266 38.3945C82.1901 39.306 80.3867 39.7617 78.3164 39.7617C75.3477 39.7617 72.9844 38.8568 71.2266 37.0469C69.4688 35.237 68.5898 32.8216 68.5898 29.8008C68.5898 26.8971 69.4948 24.5143 71.3047 22.6523C73.1276 20.7773 75.4648 19.8398 78.3164 19.8398C81.2982 19.8398 83.6224 20.6927 85.2891 22.3984C86.9557 24.1042 87.7891 26.4935 87.7891 29.5664V30.3672ZM83.3945 27.5156C83.2253 26.1875 82.7174 25.1784 81.8711 24.4883C81.0247 23.7852 79.8659 23.4336 78.3945 23.4336C77.0013 23.4336 75.8815 23.7721 75.0352 24.4492C74.1888 25.1263 73.5964 26.1484 73.2578 27.5156H83.3945ZM94.018 39V8.72656H98.2563V39H94.018ZM123.763 30.3672H108.958C109.062 32.099 109.576 33.4531 110.501 34.4297C111.425 35.3932 112.656 35.875 114.192 35.875C115.559 35.875 116.699 35.5885 117.61 35.0156C118.522 34.4427 119.316 33.5182 119.993 32.2422L123.567 34.2344C122.526 36.0964 121.236 37.4831 119.7 38.3945C118.164 39.306 116.36 39.7617 114.29 39.7617C111.321 39.7617 108.958 38.8568 107.2 37.0469C105.442 35.237 104.563 32.8216 104.563 29.8008C104.563 26.8971 105.468 24.5143 107.278 22.6523C109.101 20.7773 111.438 19.8398 114.29 19.8398C117.272 19.8398 119.596 20.6927 121.263 22.3984C122.929 24.1042 123.763 26.4935 123.763 29.5664V30.3672ZM119.368 27.5156C119.199 26.1875 118.691 25.1784 117.845 24.4883C116.998 23.7852 115.839 23.4336 114.368 23.4336C112.975 23.4336 111.855 23.7721 111.009 24.4492C110.162 25.1263 109.57 26.1484 109.231 27.5156H119.368ZM143.624 25.7578C142.973 25.0417 142.211 24.4948 141.339 24.1172C140.48 23.7396 139.549 23.5508 138.546 23.5508C136.814 23.5508 135.428 24.1107 134.386 25.2305C133.344 26.3503 132.823 27.8346 132.823 29.6836C132.823 31.6107 133.344 33.1276 134.386 34.2344C135.441 35.3281 136.892 35.875 138.741 35.875C139.77 35.875 140.688 35.6862 141.495 35.3086C142.303 34.918 143.012 34.332 143.624 33.5508V38.4336C142.843 38.8763 142.003 39.2083 141.105 39.4297C140.219 39.651 139.275 39.7617 138.273 39.7617C135.369 39.7617 132.999 38.8372 131.163 36.9883C129.34 35.1393 128.429 32.7435 128.429 29.8008C128.429 26.819 129.373 24.4167 131.261 22.5938C133.162 20.7578 135.642 19.8398 138.702 19.8398C139.666 19.8398 140.551 19.9375 141.359 20.1328C142.166 20.3151 142.921 20.6016 143.624 20.9922V25.7578ZM150.556 39V24.1953H147.314V20.4844H150.556V13.4727H154.795V20.4844H158.037V24.1953H154.795V39H150.556ZM181.141 30.3672H166.336C166.44 32.099 166.954 33.4531 167.879 34.4297C168.803 35.3932 170.034 35.875 171.57 35.875C172.938 35.875 174.077 35.5885 174.988 35.0156C175.9 34.4427 176.694 33.5182 177.371 32.2422L180.945 34.2344C179.904 36.0964 178.615 37.4831 177.078 38.3945C175.542 39.306 173.738 39.7617 171.668 39.7617C168.699 39.7617 166.336 38.8568 164.578 37.0469C162.82 35.237 161.941 32.8216 161.941 29.8008C161.941 26.8971 162.846 24.5143 164.656 22.6523C166.479 20.7773 168.816 19.8398 171.668 19.8398C174.65 19.8398 176.974 20.6927 178.641 22.3984C180.307 24.1042 181.141 26.4935 181.141 29.5664V30.3672ZM176.746 27.5156C176.577 26.1875 176.069 25.1784 175.223 24.4883C174.376 23.7852 173.217 23.4336 171.746 23.4336C170.353 23.4336 169.233 23.7721 168.387 24.4492C167.54 25.1263 166.948 26.1484 166.609 27.5156H176.746ZM200.475 29.6836C200.475 27.7695 200.026 26.2786 199.127 25.2109C198.242 24.1432 196.998 23.6094 195.397 23.6094C193.795 23.6094 192.532 24.1628 191.608 25.2695C190.696 26.3633 190.241 27.8867 190.241 29.8398C190.241 31.806 190.683 33.3229 191.569 34.3906C192.454 35.4583 193.704 35.9922 195.319 35.9922C196.855 35.9922 198.099 35.4193 199.049 34.2734C200 33.1146 200.475 31.5846 200.475 29.6836ZM200.358 8.72656H204.596V39H200.358V36.5977C199.603 37.6654 198.717 38.4596 197.702 38.9805C196.699 39.5013 195.547 39.7617 194.245 39.7617C191.627 39.7617 189.564 38.8698 188.053 37.0859C186.556 35.2891 185.807 32.8346 185.807 29.7227C185.807 26.7669 186.575 24.3841 188.112 22.5742C189.648 20.7513 191.653 19.8398 194.127 19.8398C195.638 19.8398 196.927 20.1589 197.995 20.7969C199.075 21.4219 199.863 22.3268 200.358 23.5117V8.72656Z" fill="black"/>
<path d="M0.503125 60.784H41.4951L44.8551 60.688C47.2871 60.112 48.8871 58.384 49.6551 55.504L54.3591 77.968C53.2071 74.704 50.6151 71.952 46.5831 69.712C42.6151 67.472 38.2631 66.352 33.5271 66.352C31.7991 66.352 30.5831 66.544 29.8791 66.928C28.9191 67.312 28.1191 68.016 27.4791 69.04C26.9031 70 26.6151 71.024 26.6151 72.112V91.12H38.9031C44.9191 91.12 48.3111 87.728 49.0791 80.944V106.96C48.6951 105.04 48.3431 103.6 48.0231 102.64C47.7031 101.68 47.3831 100.912 47.0631 100.336C45.3991 97.84 42.6151 96.592 38.7111 96.592H26.6151V118.864C26.6151 122.832 29.3031 124.816 34.6791 124.816C44.9831 124.816 52.3431 119.824 56.7591 109.84L49.3671 134.224C48.9831 133.136 48.4391 132.336 47.7351 131.824C46.7751 130.992 45.9751 130.48 45.3351 130.288C44.7591 130.096 43.7031 130 42.1671 130H0.887125C2.99912 128.976 4.34312 128.048 4.91912 127.216C5.55913 126.384 5.87913 124.88 5.87913 122.704V68.368C5.87913 66.192 5.49513 64.656 4.72712 63.76C4.02312 62.864 2.61512 61.872 0.503125 60.784ZM58.1661 81.712H88.8861C86.6461 82.864 85.5261 83.952 85.5261 84.976C85.5261 86.064 85.8781 87.44 86.5821 89.104L91.4781 101.872L96.2781 89.008C96.9821 87.28 97.3341 85.968 97.3341 85.072C97.3341 83.728 96.2141 82.608 93.9741 81.712H108.662C107.638 82.288 106.87 82.736 106.358 83.056C105.846 83.376 105.27 83.792 104.63 84.304C104.246 84.752 103.766 85.456 103.19 86.416C102.678 87.312 102.23 88.208 101.846 89.104L83.3181 132.496L64.6941 89.008C63.8621 87.088 62.9661 85.616 62.0061 84.592C61.1101 83.568 59.8301 82.608 58.1661 81.712ZM151.073 103.024H125.441V104.464C125.441 109.072 126.625 112.784 128.993 115.6C131.361 118.352 134.529 119.728 138.497 119.728C143.297 119.728 147.521 117.552 151.169 113.2C150.337 118.512 147.969 122.864 144.065 126.256C140.161 129.648 135.521 131.344 130.145 131.344C123.745 131.344 118.497 129.136 114.401 124.72C110.369 120.24 108.353 114.512 108.353 107.536C108.353 99.984 110.529 93.616 114.881 88.432C119.297 83.184 124.705 80.56 131.105 80.56C136.609 80.56 141.313 82.576 145.217 86.608C149.121 90.64 151.073 95.536 151.073 101.296V103.024ZM125.441 98.032H133.889V96.592C133.889 93.2 133.505 90.608 132.737 88.816C132.033 87.024 130.977 86.128 129.569 86.128C126.817 86.128 125.441 89.616 125.441 96.592V98.032ZM156.282 88.912L162.042 87.664C165.434 86.832 168.218 86 170.394 85.168C172.634 84.272 175.93 82.672 180.282 80.368V87.76C187.834 82.832 193.946 80.368 198.618 80.368C204.89 80.368 208.026 83.024 208.026 88.336V122.704C208.026 124.688 208.346 126.192 208.986 127.216C209.626 128.24 210.874 129.168 212.73 130H184.698C185.338 129.552 186.01 129.072 186.714 128.56C186.97 128.368 187.29 127.984 187.674 127.408C188.378 126.512 188.73 124.944 188.73 122.704V94.672C188.73 93.008 188.57 91.888 188.25 91.312C187.93 90.736 187.29 90.448 186.33 90.448C184.538 90.448 182.746 91.248 180.954 92.848V122.704L181.242 125.872C181.434 126.704 182.234 127.824 183.642 129.232L184.41 130H156.474C157.754 129.424 158.65 128.976 159.162 128.656C159.738 128.272 160.218 127.856 160.602 127.408C161.306 126.32 161.658 124.752 161.658 122.704V95.536C161.658 91.504 159.866 89.296 156.282 88.912ZM215.222 87.28V83.344L220.406 81.712C223.926 80.368 227.382 78.352 230.774 75.664C232.758 73.872 234.486 72.08 235.958 70.288C237.686 68.24 239.446 65.616 241.238 62.416V81.712H253.526V87.28H241.238V118C241.238 119.344 241.526 120.4 242.102 121.168C242.678 121.872 243.51 122.224 244.598 122.224C245.878 122.224 247.19 121.744 248.534 120.784C249.878 119.76 250.934 118.512 251.702 117.04C251.126 121.008 249.238 124.368 246.038 127.12C242.838 129.872 239.19 131.248 235.094 131.248C231.19 131.248 227.99 130.096 225.494 127.792C223.062 125.424 221.846 122.384 221.846 118.672V87.28H215.222Z" fill="#223574"/>
</svg>
