<svg width="920" height="367" viewBox="0 0 920 367" fill="none" xmlns="http://www.w3.org/2000/svg">
<path d="M56.24 82.32H89.76C91.7333 82.32 93.04 82.24 93.68 82.08C95.44 81.3867 96.72 80.0267 97.52 78L101.68 96.32C100.613 95.04 99.8133 94.1067 99.28 93.52C98.7467 92.88 98.0533 92.1333 97.2 91.28C95.44 89.7867 93.5467 88.6933 91.52 88C89.5467 87.3067 87.1467 86.96 84.32 86.96C80.1067 86.96 78 88.6933 78 92.16V108.48H87.92C90.3733 108.48 92.2933 107.787 93.68 106.4C95.0667 104.96 96 102.747 96.48 99.76V120.88C96.1067 119.547 95.7867 118.613 95.52 118.08C95.3067 117.547 94.96 116.907 94.48 116.16C93.7867 114.987 92.9867 114.187 92.08 113.76C91.1733 113.333 89.8133 113.12 88 113.12H78V133.92C78 135.787 78.24 137.12 78.72 137.92C79.2533 138.667 80.3733 139.36 82.08 140H56.4C57.4667 139.52 58.2133 139.147 58.64 138.88C59.12 138.56 59.52 138.213 59.84 137.84C60.3733 137.04 60.64 135.733 60.64 133.92V88.56C60.64 86.8533 60.3467 85.6 59.76 84.8C59.2267 84 58.0533 83.1733 56.24 82.32ZM101.613 105.76L107.133 104.72C109.906 104.08 112.226 103.387 114.093 102.64C115.959 101.893 118.706 100.56 122.333 98.64V104C125.533 100.533 128.679 98.8 131.773 98.8C133.586 98.8 135.053 99.4667 136.173 100.8C137.346 102.08 137.933 103.733 137.933 105.76C137.933 107.68 137.346 109.28 136.173 110.56C135.053 111.787 133.586 112.4 131.773 112.4C129.959 112.4 128.733 111.707 128.093 110.32L127.213 108.16C126.839 107.52 126.333 107.2 125.693 107.2C124.359 107.2 123.186 107.973 122.173 109.52V133.92C122.173 135.733 122.439 137.04 122.973 137.84C123.506 138.64 124.573 139.36 126.173 140H101.693C103.399 139.36 104.546 138.64 105.133 137.84C105.773 136.987 106.093 135.68 106.093 133.92V111.28C106.093 107.92 104.599 106.08 101.613 105.76ZM141.353 119.76C141.353 113.52 143.113 108.453 146.633 104.56C150.206 100.613 154.793 98.64 160.393 98.64C165.94 98.64 170.5 100.613 174.073 104.56C177.646 108.507 179.433 113.573 179.433 119.76C179.433 125.947 177.646 131.013 174.073 134.96C170.5 138.907 165.94 140.88 160.393 140.88C154.846 140.88 150.286 138.907 146.713 134.96C143.14 131.013 141.353 125.947 141.353 119.76ZM156.473 118.88V119.76C156.473 121.893 156.473 123.947 156.473 125.92C156.526 127.893 156.74 130.213 157.113 132.88C157.54 135.493 158.606 136.8 160.313 136.8C162.073 136.8 163.166 135.493 163.593 132.88C163.806 131.387 163.966 129.627 164.073 127.6C164.18 125.573 164.233 122.96 164.233 119.76C164.233 112.827 163.993 108.267 163.513 106.08C163.033 103.84 162.02 102.72 160.473 102.72C158.66 102.72 157.593 103.787 157.273 105.92C156.953 108 156.74 109.973 156.633 111.84C156.526 113.707 156.473 116.053 156.473 118.88ZM184.184 105.76L188.984 104.72C191.811 104.027 194.131 103.333 195.944 102.64C197.811 101.893 200.558 100.56 204.184 98.64V104.8C210.478 100.693 215.571 98.64 219.464 98.64C224.691 98.64 227.304 100.853 227.304 105.28V133.92C227.304 135.573 227.571 136.827 228.104 137.68C228.638 138.533 229.678 139.307 231.224 140H207.864C208.398 139.627 208.958 139.227 209.544 138.8C209.758 138.64 210.024 138.32 210.344 137.84C210.931 137.093 211.224 135.787 211.224 133.92V110.56C211.224 109.173 211.091 108.24 210.824 107.76C210.558 107.28 210.024 107.04 209.224 107.04C207.731 107.04 206.238 107.707 204.744 109.04V133.92L204.984 136.56C205.144 137.253 205.811 138.187 206.984 139.36L207.624 140H184.344C185.411 139.52 186.158 139.147 186.584 138.88C187.064 138.56 187.464 138.213 187.784 137.84C188.371 136.933 188.664 135.627 188.664 133.92V111.28C188.664 107.92 187.171 106.08 184.184 105.76ZM233.301 104.4V101.12L237.621 99.76C240.555 98.64 243.435 96.96 246.261 94.72C247.915 93.2267 249.355 91.7333 250.581 90.24C252.021 88.5333 253.488 86.3467 254.981 83.68V99.76H265.221V104.4H254.981V130C254.981 131.12 255.221 132 255.701 132.64C256.181 133.227 256.875 133.52 257.781 133.52C258.848 133.52 259.941 133.12 261.061 132.32C262.181 131.467 263.061 130.427 263.701 129.2C263.221 132.507 261.648 135.307 258.981 137.6C256.315 139.893 253.275 141.04 249.861 141.04C246.608 141.04 243.941 140.08 241.861 138.16C239.835 136.187 238.821 133.653 238.821 130.56V104.4H233.301ZM293.1 82.32H327.26L330.06 82.24C332.087 81.76 333.42 80.32 334.06 77.92L337.98 96.64C337.02 93.92 334.86 91.6267 331.5 89.76C328.193 87.8933 324.567 86.96 320.62 86.96C319.18 86.96 318.167 87.12 317.58 87.44C316.78 87.76 316.113 88.3467 315.58 89.2C315.1 90 314.86 90.8533 314.86 91.76V107.6H325.1C330.113 107.6 332.94 104.773 333.58 99.12V120.8C333.26 119.2 332.967 118 332.7 117.2C332.433 116.4 332.167 115.76 331.9 115.28C330.513 113.2 328.193 112.16 324.94 112.16H314.86V130.72C314.86 134.027 317.1 135.68 321.58 135.68C330.167 135.68 336.3 131.52 339.98 123.2L333.82 143.52C333.5 142.613 333.047 141.947 332.46 141.52C331.66 140.827 330.993 140.4 330.46 140.24C329.98 140.08 329.1 140 327.82 140H293.42C295.18 139.147 296.3 138.373 296.78 137.68C297.313 136.987 297.58 135.733 297.58 133.92V88.64C297.58 86.8267 297.26 85.5467 296.62 84.8C296.033 84.0533 294.86 83.2267 293.1 82.32ZM343.312 105.76L348.112 104.72C350.939 104.027 353.259 103.333 355.072 102.64C356.939 101.893 359.686 100.56 363.312 98.64V104.8C369.606 100.693 374.699 98.64 378.592 98.64C383.819 98.64 386.432 100.853 386.432 105.28V133.92C386.432 135.573 386.699 136.827 387.232 137.68C387.766 138.533 388.806 139.307 390.352 140H366.992C367.526 139.627 368.086 139.227 368.672 138.8C368.886 138.64 369.152 138.32 369.472 137.84C370.059 137.093 370.352 135.787 370.352 133.92V110.56C370.352 109.173 370.219 108.24 369.952 107.76C369.686 107.28 369.152 107.04 368.352 107.04C366.859 107.04 365.366 107.707 363.872 109.04V133.92L364.112 136.56C364.272 137.253 364.939 138.187 366.112 139.36L366.752 140H343.472C344.539 139.52 345.286 139.147 345.712 138.88C346.192 138.56 346.592 138.213 346.912 137.84C347.499 136.933 347.792 135.627 347.792 133.92V111.28C347.792 107.92 346.299 106.08 343.312 105.76ZM416.589 100.48V94.24C416.589 92.48 416.189 91.0667 415.389 90C414.589 88.88 413.496 88.32 412.109 88.32C413.123 88.2133 413.949 88.1333 414.589 88.08C415.283 87.9733 416.269 87.8133 417.549 87.6C420.376 87.0133 422.749 86.32 424.669 85.52C426.643 84.72 429.363 83.28 432.829 81.2V134C432.829 135.76 433.123 137.067 433.709 137.92C434.296 138.72 435.416 139.413 437.069 140H416.589V136.64C414.083 139.627 410.856 141.12 406.909 141.12C403.603 141.12 400.909 139.36 398.829 135.84C396.749 132.267 395.709 127.653 395.709 122C395.709 115.173 397.043 109.547 399.709 105.12C402.376 100.693 405.789 98.48 409.949 98.48C412.563 98.48 414.776 99.1467 416.589 100.48ZM416.909 132.64V104.64C416.163 103.947 415.469 103.6 414.829 103.6C413.869 103.6 413.149 104.08 412.669 105.04C411.496 107.493 410.909 112 410.909 118.56C410.909 125.547 411.496 130.16 412.669 132.4C413.149 133.307 413.843 133.76 414.749 133.76C415.389 133.76 416.109 133.387 416.909 132.64ZM466.838 82.48L471.398 82.24L474.598 82.08C481.318 81.76 485.638 81.6 487.557 81.6C492.571 81.6 496.544 81.9733 499.478 82.72C502.411 83.4667 505.184 84.8267 507.798 86.8C514.891 92.24 518.438 100.72 518.438 112.24C518.438 122.533 515.451 130.213 509.478 135.28C507.078 137.413 504.331 138.907 501.238 139.76C498.144 140.613 494.011 141.04 488.838 141.04C486.224 140.827 483.664 140.64 481.158 140.48C478.704 140.373 475.904 140.32 472.758 140.32L470.038 140.16L466.918 139.92C468.678 139.173 469.798 138.453 470.278 137.76C470.758 137.013 470.998 135.707 470.998 133.84V88.56C470.998 86.6933 470.731 85.3867 470.198 84.64C469.718 83.84 468.598 83.12 466.838 82.48ZM488.358 86.88V135.6C489.211 135.92 489.904 136.16 490.438 136.32C490.971 136.427 491.558 136.48 492.198 136.48C495.344 136.48 497.638 134.613 499.078 130.88C500.571 127.147 501.318 121.253 501.318 113.2C501.318 106.907 500.971 101.627 500.278 97.36C499.584 93.0933 498.598 90.2133 497.318 88.72C496.038 87.1733 494.358 86.4 492.278 86.4C491.211 86.4 489.904 86.56 488.358 86.88ZM561.456 117.52H540.096V118.72C540.096 122.56 541.083 125.653 543.056 128C545.03 130.293 547.67 131.44 550.976 131.44C554.976 131.44 558.496 129.627 561.536 126C560.843 130.427 558.87 134.053 555.616 136.88C552.363 139.707 548.496 141.12 544.016 141.12C538.683 141.12 534.31 139.28 530.896 135.6C527.536 131.867 525.856 127.093 525.856 121.28C525.856 114.987 527.67 109.68 531.296 105.36C534.976 100.987 539.483 98.8 544.816 98.8C549.403 98.8 553.323 100.48 556.576 103.84C559.83 107.2 561.456 111.28 561.456 116.08V117.52ZM540.096 113.36H547.136V112.16C547.136 109.333 546.816 107.173 546.176 105.68C545.59 104.187 544.71 103.44 543.536 103.44C541.243 103.44 540.096 106.347 540.096 112.16V113.36ZM561.293 99.76H586.893C585.026 100.72 584.093 101.627 584.093 102.48C584.093 103.387 584.386 104.533 584.973 105.92L589.053 116.56L593.053 105.84C593.64 104.4 593.933 103.307 593.933 102.56C593.933 101.44 593 100.507 591.133 99.76H603.373C602.52 100.24 601.88 100.613 601.453 100.88C601.026 101.147 600.546 101.493 600.013 101.92C599.693 102.293 599.293 102.88 598.813 103.68C598.386 104.427 598.013 105.173 597.693 105.92L582.253 142.08L566.733 105.84C566.04 104.24 565.293 103.013 564.493 102.16C563.746 101.307 562.68 100.507 561.293 99.76ZM638.716 117.52H617.356V118.72C617.356 122.56 618.342 125.653 620.316 128C622.289 130.293 624.929 131.44 628.236 131.44C632.236 131.44 635.756 129.627 638.796 126C638.102 130.427 636.129 134.053 632.876 136.88C629.622 139.707 625.756 141.12 621.276 141.12C615.942 141.12 611.569 139.28 608.156 135.6C604.796 131.867 603.116 127.093 603.116 121.28C603.116 114.987 604.929 109.68 608.556 105.36C612.236 100.987 616.742 98.8 622.076 98.8C626.662 98.8 630.582 100.48 633.836 103.84C637.089 107.2 638.716 111.28 638.716 116.08V117.52ZM617.356 113.36H624.396V112.16C624.396 109.333 624.076 107.173 623.436 105.68C622.849 104.187 621.969 103.44 620.796 103.44C618.502 103.44 617.356 106.347 617.356 112.16V113.36ZM648.496 87.6C651.216 87.0667 653.59 86.3733 655.616 85.52C657.643 84.6667 660.31 83.2267 663.616 81.2V133.92C663.616 135.787 663.83 137.093 664.256 137.84C664.736 138.533 665.83 139.253 667.536 140H643.056C644.923 139.2 646.123 138.453 646.656 137.76C647.19 137.013 647.456 135.733 647.456 133.92V94.24C647.456 92.5333 647.03 91.12 646.176 90C645.323 88.88 644.256 88.32 642.976 88.32C644.256 88.2133 645.19 88.1333 645.776 88.08C646.363 87.9733 647.27 87.8133 648.496 87.6ZM672.797 119.76C672.797 113.52 674.557 108.453 678.077 104.56C681.65 100.613 686.237 98.64 691.837 98.64C697.384 98.64 701.944 100.613 705.517 104.56C709.09 108.507 710.877 113.573 710.877 119.76C710.877 125.947 709.09 131.013 705.517 134.96C701.944 138.907 697.384 140.88 691.837 140.88C686.29 140.88 681.73 138.907 678.157 134.96C674.584 131.013 672.797 125.947 672.797 119.76ZM687.917 118.88V119.76C687.917 121.893 687.917 123.947 687.917 125.92C687.97 127.893 688.184 130.213 688.557 132.88C688.984 135.493 690.05 136.8 691.757 136.8C693.517 136.8 694.61 135.493 695.037 132.88C695.25 131.387 695.41 129.627 695.517 127.6C695.624 125.573 695.677 122.96 695.677 119.76C695.677 112.827 695.437 108.267 694.957 106.08C694.477 103.84 693.464 102.72 691.917 102.72C690.104 102.72 689.037 103.787 688.717 105.92C688.397 108 688.184 109.973 688.077 111.84C687.97 113.707 687.917 116.053 687.917 118.88ZM715.628 105.76L720.428 104.72C723.148 104.08 725.468 103.387 727.388 102.64C729.308 101.84 732.055 100.507 735.628 98.64V103.04C738.615 100.213 741.921 98.8 745.548 98.8C748.215 98.8 750.401 99.6533 752.108 101.36C753.655 102.907 754.908 105.2 755.868 108.24C756.828 111.28 757.308 114.613 757.308 118.24C757.308 124.747 755.948 130.16 753.228 134.48C750.508 138.8 747.068 140.96 742.908 140.96C740.561 140.96 738.321 140.48 736.188 139.52V148.8C736.188 150.72 736.455 152.027 736.988 152.72C737.255 153.093 737.655 153.467 738.188 153.84C738.721 154.213 739.388 154.587 740.188 154.96H715.708C716.508 154.533 717.308 154.107 718.108 153.68C718.481 153.467 718.855 153.147 719.228 152.72C719.815 151.813 720.108 150.48 720.108 148.72V111.28C720.108 107.92 718.615 106.08 715.628 105.76ZM735.468 106.8V135.04C736.215 135.733 736.908 136.08 737.548 136.08C740.108 136.08 741.388 131.067 741.388 121.04C741.388 110.96 740.135 105.92 737.628 105.92C737.415 105.92 737.121 105.973 736.748 106.08C736.428 106.187 736.001 106.427 735.468 106.8ZM800.109 117.52H778.749V118.72C778.749 122.56 779.736 125.653 781.709 128C783.683 130.293 786.323 131.44 789.629 131.44C793.629 131.44 797.149 129.627 800.189 126C799.496 130.427 797.523 134.053 794.269 136.88C791.016 139.707 787.149 141.12 782.669 141.12C777.336 141.12 772.963 139.28 769.549 135.6C766.189 131.867 764.509 127.093 764.509 121.28C764.509 114.987 766.323 109.68 769.949 105.36C773.629 100.987 778.136 98.8 783.469 98.8C788.056 98.8 791.976 100.48 795.229 103.84C798.483 107.2 800.109 111.28 800.109 116.08V117.52ZM778.749 113.36H785.789V112.16C785.789 109.333 785.469 107.173 784.829 105.68C784.243 104.187 783.363 103.44 782.189 103.44C779.896 103.44 778.749 106.347 778.749 112.16V113.36ZM804.45 105.76L809.97 104.72C812.743 104.08 815.063 103.387 816.93 102.64C818.797 101.893 821.543 100.56 825.17 98.64V104C828.37 100.533 831.517 98.8 834.61 98.8C836.423 98.8 837.89 99.4667 839.01 100.8C840.183 102.08 840.77 103.733 840.77 105.76C840.77 107.68 840.183 109.28 839.01 110.56C837.89 111.787 836.423 112.4 834.61 112.4C832.797 112.4 831.57 111.707 830.93 110.32L830.05 108.16C829.677 107.52 829.17 107.2 828.53 107.2C827.197 107.2 826.023 107.973 825.01 109.52V133.92C825.01 135.733 825.277 137.04 825.81 137.84C826.343 138.64 827.41 139.36 829.01 140H804.53C806.237 139.36 807.383 138.64 807.97 137.84C808.61 136.987 808.93 135.68 808.93 133.92V111.28C808.93 107.92 807.437 106.08 804.45 105.76ZM80.08 212.88V205.2C80.08 204.027 79.7867 203.093 79.2 202.4C78.6133 201.707 77.7867 201.36 76.72 201.36C75.76 201.36 75.0933 201.627 74.72 202.16C74.4 202.64 74.24 203.627 74.24 205.12C74.24 206.667 74.2133 207.627 74.16 208C74.1067 208.373 73.8933 208.907 73.52 209.6C72.5067 211.947 70.5333 213.12 67.6 213.12C65.8933 213.12 64.4533 212.64 63.28 211.68C62.1067 210.72 61.52 209.493 61.52 208C61.52 204.853 63.5733 202.16 67.68 199.92C71.84 197.68 76.8533 196.56 82.72 196.56C91.3067 196.56 95.6 199.467 95.6 205.28V228.48C95.6 230.187 95.68 231.28 95.84 231.76C96.32 232.507 96.9867 232.88 97.84 232.88C98.5867 232.88 99.1733 232.72 99.6 232.4C100.027 232.08 100.48 231.413 100.96 230.4C100.48 233.067 99.2 235.2 97.12 236.8C95.04 238.4 92.5067 239.2 89.52 239.2C88.9867 239.2 88.4267 239.147 87.84 239.04C87.2533 238.987 86.5333 238.853 85.68 238.64C84.6133 238.267 83.76 237.867 83.12 237.44C82.5333 237.013 81.7333 236.213 80.72 235.04L79.6 233.92L78.4 235.12C77.92 235.6 77.6 235.92 77.44 236.08C77.0667 236.453 76.8 236.693 76.64 236.8C74.56 238.347 72.0267 239.12 69.04 239.12C65.8933 239.12 63.2267 238.107 61.04 236.08C58.8533 234.053 57.76 231.52 57.76 228.48C57.76 225.813 58.7467 223.307 60.72 220.96C62.6933 218.613 65.1467 217.04 68.08 216.24L78 213.52L80.08 212.88ZM80.08 229.6V216.72C77.7333 217.52 76.08 218.64 75.12 220.08C74.2133 221.467 73.76 223.493 73.76 226.16C73.76 230 74.7467 231.92 76.72 231.92C77.68 231.92 78.8 231.147 80.08 229.6ZM102.55 203.76L107.35 202.72C110.177 202.027 112.497 201.333 114.31 200.64C116.177 199.893 118.923 198.56 122.55 196.64V202.8C128.843 198.693 133.937 196.64 137.83 196.64C143.057 196.64 145.67 198.853 145.67 203.28V231.92C145.67 233.573 145.937 234.827 146.47 235.68C147.003 236.533 148.043 237.307 149.59 238H126.23C126.763 237.627 127.323 237.227 127.91 236.8C128.123 236.64 128.39 236.32 128.71 235.84C129.297 235.093 129.59 233.787 129.59 231.92V208.56C129.59 207.173 129.457 206.24 129.19 205.76C128.923 205.28 128.39 205.04 127.59 205.04C126.097 205.04 124.603 205.707 123.11 207.04V231.92L123.35 234.56C123.51 235.253 124.177 236.187 125.35 237.36L125.99 238H102.71C103.777 237.52 104.523 237.147 104.95 236.88C105.43 236.56 105.83 236.213 106.15 235.84C106.737 234.933 107.03 233.627 107.03 231.92V209.28C107.03 205.92 105.537 204.08 102.55 203.76ZM175.827 198.48V192.24C175.827 190.48 175.427 189.067 174.627 188C173.827 186.88 172.734 186.32 171.347 186.32C172.36 186.213 173.187 186.133 173.827 186.08C174.52 185.973 175.507 185.813 176.787 185.6C179.614 185.013 181.987 184.32 183.907 183.52C185.88 182.72 188.6 181.28 192.067 179.2V232C192.067 233.76 192.36 235.067 192.947 235.92C193.534 236.72 194.654 237.413 196.307 238H175.827V234.64C173.32 237.627 170.094 239.12 166.147 239.12C162.84 239.12 160.147 237.36 158.067 233.84C155.987 230.267 154.947 225.653 154.947 220C154.947 213.173 156.28 207.547 158.947 203.12C161.614 198.693 165.027 196.48 169.187 196.48C171.8 196.48 174.014 197.147 175.827 198.48ZM176.147 230.64V202.64C175.4 201.947 174.707 201.6 174.067 201.6C173.107 201.6 172.387 202.08 171.907 203.04C170.734 205.493 170.147 210 170.147 216.56C170.147 223.547 170.734 228.16 171.907 230.4C172.387 231.307 173.08 231.76 173.987 231.76C174.627 231.76 175.347 231.387 176.147 230.64ZM226.075 180.48L230.635 180.24L233.835 180.08C240.555 179.76 244.875 179.6 246.795 179.6C251.808 179.6 255.782 179.973 258.715 180.72C261.648 181.467 264.422 182.827 267.035 184.8C274.128 190.24 277.675 198.72 277.675 210.24C277.675 220.533 274.688 228.213 268.715 233.28C266.315 235.413 263.568 236.907 260.475 237.76C257.382 238.613 253.248 239.04 248.075 239.04C245.462 238.827 242.902 238.64 240.395 238.48C237.942 238.373 235.142 238.32 231.995 238.32L229.275 238.16L226.155 237.92C227.915 237.173 229.035 236.453 229.515 235.76C229.995 235.013 230.235 233.707 230.235 231.84V186.56C230.235 184.693 229.968 183.387 229.435 182.64C228.955 181.84 227.835 181.12 226.075 180.48ZM247.595 184.88V233.6C248.448 233.92 249.142 234.16 249.675 234.32C250.208 234.427 250.795 234.48 251.435 234.48C254.582 234.48 256.875 232.613 258.315 228.88C259.808 225.147 260.555 219.253 260.555 211.2C260.555 204.907 260.208 199.627 259.515 195.36C258.822 191.093 257.835 188.213 256.555 186.72C255.275 185.173 253.595 184.4 251.515 184.4C250.448 184.4 249.142 184.56 247.595 184.88ZM320.694 215.52H299.334V216.72C299.334 220.56 300.32 223.653 302.294 226C304.267 228.293 306.907 229.44 310.214 229.44C314.214 229.44 317.734 227.627 320.774 224C320.08 228.427 318.107 232.053 314.854 234.88C311.6 237.707 307.734 239.12 303.254 239.12C297.92 239.12 293.547 237.28 290.134 233.6C286.774 229.867 285.094 225.093 285.094 219.28C285.094 212.987 286.907 207.68 290.534 203.36C294.214 198.987 298.72 196.8 304.054 196.8C308.64 196.8 312.56 198.48 315.814 201.84C319.067 205.2 320.694 209.28 320.694 214.08V215.52ZM299.334 211.36H306.374V210.16C306.374 207.333 306.054 205.173 305.414 203.68C304.827 202.187 303.947 201.44 302.774 201.44C300.48 201.44 299.334 204.347 299.334 210.16V211.36ZM325.434 233.52L330.794 222.32C331.008 223.067 331.194 223.733 331.354 224.32C331.568 224.853 331.861 225.467 332.234 226.16C333.568 228.613 335.621 230.72 338.394 232.48C341.168 234.24 343.808 235.12 346.314 235.12C348.768 235.12 349.994 234.107 349.994 232.08C349.994 231.12 349.408 230.24 348.234 229.44L339.274 223.52C338.154 222.88 337.141 222.267 336.234 221.68C335.328 221.04 334.181 220.213 332.794 219.2C329.488 216.533 327.834 213.333 327.834 209.6C327.834 205.653 329.408 202.507 332.554 200.16C335.754 197.813 340.021 196.64 345.354 196.64C347.221 196.64 348.474 196.693 349.114 196.8C349.754 196.853 350.714 197.067 351.994 197.44C353.328 197.76 354.528 198.16 355.594 198.64C356.714 199.067 357.968 199.707 359.354 200.56L354.474 210.48C353.834 209.2 353.301 208.213 352.874 207.52C352.448 206.827 351.914 206.08 351.274 205.28C350.048 204 348.554 202.907 346.794 202C345.088 201.093 343.568 200.64 342.234 200.64C340.581 200.64 339.754 201.307 339.754 202.64C339.754 204.72 342.448 207.333 347.834 210.48L352.234 213.12C357.408 216.16 359.994 220.133 359.994 225.04C359.994 229.147 358.368 232.533 355.114 235.2C351.914 237.867 347.808 239.2 342.794 239.2C339.968 239.2 337.301 238.8 334.794 238C332.341 237.2 329.221 235.707 325.434 233.52ZM363.937 203.76L369.377 202.72C372.257 202.027 374.577 201.333 376.337 200.64C378.097 199.947 380.817 198.613 384.497 196.64V231.92C384.497 233.787 384.711 235.067 385.137 235.76C385.617 236.4 386.737 237.147 388.497 238H364.017C365.884 237.253 367.084 236.507 367.617 235.76C368.151 235.013 368.417 233.733 368.417 231.92V209.28C368.417 208.16 368.204 207.12 367.777 206.16C367.351 204.933 366.071 204.133 363.937 203.76ZM366.817 186.8C366.817 184.347 367.537 182.587 368.977 181.52C370.417 180.453 372.844 179.92 376.257 179.92C379.457 179.92 381.751 180.453 383.137 181.52C384.577 182.587 385.297 184.32 385.297 186.72C385.297 189.227 384.577 191.013 383.137 192.08C381.697 193.147 379.271 193.68 375.857 193.68C369.831 193.68 366.817 191.387 366.817 186.8ZM403.436 238.72C401.036 238.187 399.356 237.573 398.396 236.88C397.49 236.133 397.036 235.12 397.036 233.84C397.036 232.613 397.783 231.36 399.276 230.08C401.09 228.533 402.796 227.36 404.396 226.56L406.236 225.92C402.716 225.333 399.756 223.653 397.356 220.88C395.01 218.107 393.836 214.987 393.836 211.52C393.836 207.36 395.516 203.84 398.876 200.96C402.29 198.027 406.45 196.56 411.356 196.56C414.396 196.56 417.73 197.253 421.356 198.64C422.156 196.827 423.223 195.333 424.556 194.16C425.89 192.987 427.25 192.4 428.636 192.4C430.13 192.4 431.356 192.88 432.316 193.84C433.33 194.747 433.836 195.893 433.836 197.28C433.836 198.453 433.49 199.44 432.796 200.24C432.103 201.04 431.223 201.44 430.156 201.44C429.25 201.44 428.503 201.2 427.916 200.72C427.33 200.24 427.036 199.573 427.036 198.72V198.24C426.023 198.987 425.223 199.92 424.636 201.04C427.41 204.133 428.796 207.547 428.796 211.28C428.796 215.28 427.25 218.773 424.156 221.76C421.063 224.747 417.383 226.24 413.116 226.24L411.836 226.16C411.356 226.48 411.116 226.88 411.116 227.36C411.116 228.053 411.463 228.613 412.156 229.04C412.85 229.467 414.263 229.92 416.396 230.4C418.583 230.827 421.036 231.627 423.756 232.8C426.53 233.973 428.69 235.2 430.236 236.48C432.156 238.027 433.116 240.08 433.116 242.64C433.116 250.64 426.05 254.64 411.916 254.64C399.436 254.64 393.196 252.267 393.196 247.52C393.196 245.867 394.156 244.213 396.076 242.56C397.996 240.907 400.45 239.627 403.436 238.72ZM419.436 246.64C419.436 243.92 415.916 241.893 408.876 240.56C405.783 241.893 404.236 243.68 404.236 245.92C404.236 247.36 404.93 248.507 406.316 249.36C407.703 250.213 409.596 250.64 411.996 250.64C414.236 250.64 416.023 250.267 417.356 249.52C418.743 248.827 419.436 247.867 419.436 246.64ZM407.916 210.24L407.996 211.44V212.4C407.996 215.387 408.076 217.36 408.236 218.32C408.396 219.227 408.716 220.16 409.196 221.12C409.73 221.813 410.396 222.16 411.196 222.16C413.383 222.16 414.476 220.427 414.476 216.96L414.636 212.72L414.796 211.44C414.796 208.027 414.716 205.787 414.556 204.72C414.396 203.6 413.996 202.64 413.356 201.84C412.983 201.253 412.343 200.96 411.436 200.96C410.156 200.96 409.25 201.653 408.716 203.04C408.183 204.373 407.916 206.773 407.916 210.24ZM434.4 203.76L439.2 202.72C442.027 202.027 444.347 201.333 446.16 200.64C448.027 199.893 450.773 198.56 454.4 196.64V202.8C460.693 198.693 465.787 196.64 469.68 196.64C474.907 196.64 477.52 198.853 477.52 203.28V231.92C477.52 233.573 477.787 234.827 478.32 235.68C478.853 236.533 479.893 237.307 481.44 238H458.08C458.613 237.627 459.173 237.227 459.76 236.8C459.973 236.64 460.24 236.32 460.56 235.84C461.147 235.093 461.44 233.787 461.44 231.92V208.56C461.44 207.173 461.307 206.24 461.04 205.76C460.773 205.28 460.24 205.04 459.44 205.04C457.947 205.04 456.453 205.707 454.96 207.04V231.92L455.2 234.56C455.36 235.253 456.027 236.187 457.2 237.36L457.84 238H434.56C435.627 237.52 436.373 237.147 436.8 236.88C437.28 236.56 437.68 236.213 438 235.84C438.587 234.933 438.88 233.627 438.88 231.92V209.28C438.88 205.92 437.387 204.08 434.4 203.76ZM522.397 215.52H501.037V216.72C501.037 220.56 502.024 223.653 503.997 226C505.97 228.293 508.61 229.44 511.917 229.44C515.917 229.44 519.437 227.627 522.477 224C521.784 228.427 519.81 232.053 516.557 234.88C513.304 237.707 509.437 239.12 504.957 239.12C499.624 239.12 495.25 237.28 491.837 233.6C488.477 229.867 486.797 225.093 486.797 219.28C486.797 212.987 488.61 207.68 492.237 203.36C495.917 198.987 500.424 196.8 505.757 196.8C510.344 196.8 514.264 198.48 517.517 201.84C520.77 205.2 522.397 209.28 522.397 214.08V215.52ZM501.037 211.36H508.077V210.16C508.077 207.333 507.757 205.173 507.117 203.68C506.53 202.187 505.65 201.44 504.477 201.44C502.184 201.44 501.037 204.347 501.037 210.16V211.36ZM526.738 203.76L532.258 202.72C535.031 202.08 537.351 201.387 539.218 200.64C541.084 199.893 543.831 198.56 547.458 196.64V202C550.658 198.533 553.804 196.8 556.898 196.8C558.711 196.8 560.178 197.467 561.298 198.8C562.471 200.08 563.058 201.733 563.058 203.76C563.058 205.68 562.471 207.28 561.298 208.56C560.178 209.787 558.711 210.4 556.898 210.4C555.084 210.4 553.858 209.707 553.218 208.32L552.338 206.16C551.964 205.52 551.458 205.2 550.818 205.2C549.484 205.2 548.311 205.973 547.298 207.52V231.92C547.298 233.733 547.564 235.04 548.098 235.84C548.631 236.64 549.698 237.36 551.298 238H526.818C528.524 237.36 529.671 236.64 530.258 235.84C530.898 234.987 531.218 233.68 531.218 231.92V209.28C531.218 205.92 529.724 204.08 526.738 203.76Z" fill="#223574"/>
<path d="M249.953 35V9.26562H254.137V18.7578H266.793V9.26562H270.977V35H266.793V22.502H254.137V35H249.953ZM277.672 11.1289C277.672 10.4844 277.907 9.92773 278.376 9.45898C278.856 8.99023 279.424 8.75586 280.081 8.75586C280.76 8.75586 281.323 8.98438 281.768 9.44141C282.225 9.88672 282.454 10.4492 282.454 11.1289C282.454 11.8086 282.225 12.3828 281.768 12.8516C281.311 13.3086 280.749 13.5371 280.081 13.5371C279.424 13.5371 278.856 13.3027 278.376 12.834C277.907 12.3535 277.672 11.7852 277.672 11.1289ZM278.182 35V18.3359H281.997V35H278.182ZM291.698 30.6406L295.126 31.9062L290.556 41.3281L288.288 40.4316L291.698 30.6406ZM313.897 35V9.26562H318.08V35H313.897ZM324.741 18.2305L328.081 8.68555L331.298 9.72266L326.973 19.0566L324.741 18.2305ZM341.333 35H337.519V18.3359H341.105V21.0605C341.867 19.9004 342.728 19.0566 343.689 18.5293C344.661 17.9902 345.804 17.7207 347.117 17.7207C348.417 17.7207 349.495 17.9961 350.351 18.5469C351.206 19.0859 351.857 19.9121 352.302 21.0254C353.181 19.877 354.113 19.0391 355.097 18.5117C356.093 17.9844 357.224 17.7207 358.49 17.7207C359.591 17.7207 360.552 17.9258 361.372 18.3359C362.193 18.7344 362.831 19.3203 363.288 20.0938C363.499 20.457 363.652 20.8906 363.745 21.3945C363.851 21.8984 363.904 22.6191 363.904 23.5566V24.8926V35H360.089V26.4395C360.089 24.2012 359.849 22.7305 359.369 22.0273C358.9 21.3125 358.056 20.9551 356.837 20.9551C355.337 20.9551 354.265 21.4355 353.62 22.3965C352.988 23.3457 352.671 25.0156 352.671 27.4062V35H348.822V26.4395C348.822 24.377 348.57 22.9473 348.066 22.1504C347.574 21.3535 346.718 20.9551 345.499 20.9551C344.749 20.9551 344.064 21.125 343.443 21.4648C342.822 21.8047 342.329 22.2734 341.966 22.8711C341.732 23.2578 341.568 23.7324 341.474 24.2949C341.38 24.8574 341.333 25.8945 341.333 27.4062V35ZM380.442 35L393.555 12.8164H382.639V9.26562H399.989L386.999 31.2559H400.147V35H380.442ZM420.624 35H416.81V32.8379C416.13 33.7988 415.333 34.5137 414.419 34.9824C413.517 35.4512 412.48 35.6855 411.308 35.6855C408.952 35.6855 407.095 34.8828 405.735 33.2773C404.388 31.6602 403.714 29.4512 403.714 26.6504C403.714 23.9902 404.405 21.8457 405.788 20.2168C407.171 18.5762 408.976 17.7559 411.202 17.7559C412.562 17.7559 413.722 18.043 414.683 18.6172C415.655 19.1797 416.364 19.9941 416.81 21.0605V18.3359H420.624V35ZM416.915 26.6152C416.915 24.8926 416.511 23.5508 415.702 22.5898C414.905 21.6289 413.786 21.1484 412.345 21.1484C410.903 21.1484 409.767 21.6465 408.935 22.6426C408.114 23.627 407.704 24.998 407.704 26.7559C407.704 28.5254 408.103 29.8906 408.899 30.8516C409.696 31.8125 410.821 32.293 412.274 32.293C413.646 32.293 414.759 31.7715 415.614 30.7285C416.481 29.6855 416.915 28.3145 416.915 26.6152ZM427.337 35V7.75391H431.152V25.2441L438.13 18.3359H442.841L435.283 25.6836L443.562 35H438.64L431.152 26.4043V35H427.337ZM463.055 35H459.24V32.8379C458.561 33.7988 457.764 34.5137 456.85 34.9824C455.947 35.4512 454.91 35.6855 453.738 35.6855C451.383 35.6855 449.526 34.8828 448.166 33.2773C446.819 31.6602 446.145 29.4512 446.145 26.6504C446.145 23.9902 446.836 21.8457 448.219 20.2168C449.602 18.5762 451.406 17.7559 453.633 17.7559C454.992 17.7559 456.152 18.043 457.113 18.6172C458.086 19.1797 458.795 19.9941 459.24 21.0605V18.3359H463.055V35ZM459.346 26.6152C459.346 24.8926 458.942 23.5508 458.133 22.5898C457.336 21.6289 456.217 21.1484 454.776 21.1484C453.334 21.1484 452.197 21.6465 451.365 22.6426C450.545 23.627 450.135 24.998 450.135 26.7559C450.135 28.5254 450.533 29.8906 451.33 30.8516C452.127 31.8125 453.252 32.293 454.705 32.293C456.076 32.293 457.19 31.7715 458.045 30.7285C458.912 29.6855 459.346 28.3145 459.346 26.6152ZM497.751 35H493.937V32.8379C493.257 33.7988 492.46 34.5137 491.546 34.9824C490.644 35.4512 489.607 35.6855 488.435 35.6855C486.079 35.6855 484.222 34.8828 482.863 33.2773C481.515 31.6602 480.841 29.4512 480.841 26.6504C480.841 23.9902 481.533 21.8457 482.915 20.2168C484.298 18.5762 486.103 17.7559 488.329 17.7559C489.689 17.7559 490.849 18.043 491.81 18.6172C492.783 19.1797 493.491 19.9941 493.937 21.0605V18.3359H497.751V35ZM494.042 26.6152C494.042 24.8926 493.638 23.5508 492.829 22.5898C492.033 21.6289 490.913 21.1484 489.472 21.1484C488.031 21.1484 486.894 21.6465 486.062 22.6426C485.241 23.627 484.831 24.998 484.831 26.7559C484.831 28.5254 485.23 29.8906 486.027 30.8516C486.824 31.8125 487.949 32.293 489.402 32.293C490.773 32.293 491.886 31.7715 492.741 30.7285C493.609 29.6855 494.042 28.3145 494.042 26.6152ZM504.465 35V18.3359H508.051V21.0605C508.812 19.9121 509.709 19.0742 510.74 18.5469C511.771 18.0195 513.025 17.7559 514.502 17.7559C515.744 17.7559 516.799 17.9551 517.666 18.3535C518.545 18.7402 519.23 19.3203 519.723 20.0938C520.015 20.5508 520.226 21.084 520.355 21.6934C520.484 22.3027 520.549 23.3691 520.549 24.8926V35H516.699V26.4395C516.699 24.248 516.43 22.7949 515.89 22.0801C515.363 21.3535 514.42 20.9902 513.06 20.9902C512.17 20.9902 511.373 21.1543 510.67 21.4824C509.978 21.8105 509.433 22.2734 509.035 22.8711C508.754 23.2695 508.555 23.7852 508.437 24.418C508.332 25.0391 508.279 26.0352 508.279 27.4062V35H504.465ZM539.039 26.6152C539.039 24.8926 538.635 23.5508 537.827 22.5898C537.03 21.6289 535.911 21.1484 534.469 21.1484C533.028 21.1484 531.891 21.6465 531.059 22.6426C530.239 23.627 529.829 24.998 529.829 26.7559C529.829 28.5254 530.227 29.8906 531.024 30.8516C531.821 31.8125 532.946 32.293 534.399 32.293C535.782 32.293 536.901 31.7773 537.756 30.7461C538.612 29.7031 539.039 28.3262 539.039 26.6152ZM538.934 7.75391H542.748V35H538.934V32.8379C538.254 33.7988 537.457 34.5137 536.543 34.9824C535.641 35.4512 534.604 35.6855 533.432 35.6855C531.077 35.6855 529.219 34.8828 527.86 33.2773C526.512 31.6602 525.838 29.4512 525.838 26.6504C525.838 23.9902 526.53 21.8457 527.913 20.2168C529.295 18.5762 531.1 17.7559 533.327 17.7559C534.686 17.7559 535.846 18.043 536.807 18.6172C537.78 19.1797 538.489 19.9941 538.934 21.0605V7.75391ZM562.152 35V9.26562H566.335V35H562.152ZM572.996 18.2305L576.336 8.68555L579.553 9.72266L575.229 19.0566L572.996 18.2305ZM589.589 35H585.774V18.3359H589.36V21.0605C590.122 19.9004 590.983 19.0566 591.944 18.5293C592.917 17.9902 594.059 17.7207 595.372 17.7207C596.673 17.7207 597.751 17.9961 598.606 18.5469C599.462 19.0859 600.112 19.9121 600.557 21.0254C601.436 19.877 602.368 19.0391 603.352 18.5117C604.348 17.9844 605.479 17.7207 606.745 17.7207C607.846 17.7207 608.807 17.9258 609.628 18.3359C610.448 18.7344 611.087 19.3203 611.544 20.0938C611.755 20.457 611.907 20.8906 612.001 21.3945C612.106 21.8984 612.159 22.6191 612.159 23.5566V24.8926V35H608.344V26.4395C608.344 24.2012 608.104 22.7305 607.624 22.0273C607.155 21.3125 606.311 20.9551 605.092 20.9551C603.592 20.9551 602.52 21.4355 601.876 22.3965C601.243 23.3457 600.926 25.0156 600.926 27.4062V35H597.077V26.4395C597.077 24.377 596.825 22.9473 596.321 22.1504C595.829 21.3535 594.973 20.9551 593.755 20.9551C593.005 20.9551 592.319 21.125 591.698 21.4648C591.077 21.8047 590.585 22.2734 590.221 22.8711C589.987 23.2578 589.823 23.7324 589.729 24.2949C589.635 24.8574 589.589 25.8945 589.589 27.4062V35ZM646.697 35H642.883V32.8379C642.203 33.7988 641.406 34.5137 640.492 34.9824C639.59 35.4512 638.552 35.6855 637.381 35.6855C635.025 35.6855 633.168 34.8828 631.808 33.2773C630.461 31.6602 629.787 29.4512 629.787 26.6504C629.787 23.9902 630.478 21.8457 631.861 20.2168C633.244 18.5762 635.049 17.7559 637.275 17.7559C638.635 17.7559 639.795 18.043 640.756 18.6172C641.728 19.1797 642.437 19.9941 642.883 21.0605V18.3359H646.697V35ZM642.988 26.6152C642.988 24.8926 642.584 23.5508 641.775 22.5898C640.978 21.6289 639.859 21.1484 638.418 21.1484C636.976 21.1484 635.84 21.6465 635.008 22.6426C634.187 23.627 633.777 24.998 633.777 26.7559C633.777 28.5254 634.176 29.8906 634.972 30.8516C635.769 31.8125 636.894 32.293 638.347 32.293C639.719 32.293 640.832 31.7715 641.687 30.7285C642.554 29.6855 642.988 28.3145 642.988 26.6152Z" fill="black"/>
<path d="M3.10938 316V290.266H7.29297V316H3.10938ZM42.4113 316H38.5968V313.838C37.9171 314.799 37.1202 315.514 36.2062 315.982C35.3038 316.451 34.2667 316.686 33.0948 316.686C30.7394 316.686 28.882 315.883 27.5226 314.277C26.1749 312.66 25.5011 310.451 25.5011 307.65C25.5011 304.99 26.1925 302.846 27.5753 301.217C28.9581 299.576 30.7628 298.756 32.9894 298.756C34.3488 298.756 35.5089 299.043 36.4698 299.617C37.4425 300.18 38.1515 300.994 38.5968 302.061V299.336H42.4113V316ZM38.7023 307.615C38.7023 305.893 38.298 304.551 37.4894 303.59C36.6925 302.629 35.5734 302.148 34.132 302.148C32.6905 302.148 31.5538 302.646 30.7218 303.643C29.9015 304.627 29.4913 305.998 29.4913 307.756C29.4913 309.525 29.8898 310.891 30.6866 311.852C31.4835 312.812 32.6085 313.293 34.0616 313.293C35.4327 313.293 36.546 312.771 37.4015 311.729C38.2687 310.686 38.7023 309.314 38.7023 307.615ZM52.9391 316H49.1247V299.336H52.7106V302.061C53.4723 300.9 54.3337 300.057 55.2946 299.529C56.2673 298.99 57.4098 298.721 58.7223 298.721C60.0231 298.721 61.1012 298.996 61.9567 299.547C62.8122 300.086 63.4626 300.912 63.9079 302.025C64.7868 300.877 65.7184 300.039 66.7028 299.512C67.6989 298.984 68.8298 298.721 70.0954 298.721C71.197 298.721 72.1579 298.926 72.9782 299.336C73.7985 299.734 74.4372 300.32 74.8942 301.094C75.1052 301.457 75.2575 301.891 75.3512 302.395C75.4567 302.898 75.5095 303.619 75.5095 304.557V305.893V316H71.695V307.439C71.695 305.201 71.4548 303.73 70.9743 303.027C70.5055 302.312 69.6618 301.955 68.443 301.955C66.943 301.955 65.8708 302.436 65.2262 303.396C64.5934 304.346 64.277 306.016 64.277 308.406V316H60.4274V307.439C60.4274 305.377 60.1755 303.947 59.6716 303.15C59.1794 302.354 58.3239 301.955 57.1052 301.955C56.3552 301.955 55.6696 302.125 55.0485 302.465C54.4274 302.805 53.9352 303.273 53.572 303.871C53.3376 304.258 53.1735 304.732 53.0798 305.295C52.986 305.857 52.9391 306.895 52.9391 308.406V316ZM110.048 316H106.233V313.838C105.554 314.799 104.757 315.514 103.843 315.982C102.94 316.451 101.903 316.686 100.731 316.686C98.3758 316.686 96.5184 315.883 95.159 314.277C93.8113 312.66 93.1375 310.451 93.1375 307.65C93.1375 304.99 93.8289 302.846 95.2117 301.217C96.5945 299.576 98.3992 298.756 100.626 298.756C101.985 298.756 103.145 299.043 104.106 299.617C105.079 300.18 105.788 300.994 106.233 302.061V299.336H110.048V316ZM106.339 307.615C106.339 305.893 105.934 304.551 105.126 303.59C104.329 302.629 103.21 302.148 101.768 302.148C100.327 302.148 99.1902 302.646 98.3582 303.643C97.5379 304.627 97.1277 305.998 97.1277 307.756C97.1277 309.525 97.5262 310.891 98.323 311.852C99.1199 312.812 100.245 313.293 101.698 313.293C103.069 313.293 104.182 312.771 105.038 311.729C105.905 310.686 106.339 309.314 106.339 307.615ZM127.148 312.977L130.312 311.254C130.547 312.086 130.98 312.719 131.613 313.152C132.246 313.586 133.06 313.803 134.057 313.803C134.912 313.803 135.58 313.609 136.06 313.223C136.553 312.824 136.799 312.285 136.799 311.605C136.799 310.703 135.932 309.93 134.197 309.285C133.611 309.074 133.16 308.898 132.844 308.758C131.062 308.02 129.814 307.27 129.1 306.508C128.396 305.746 128.045 304.82 128.045 303.73C128.045 302.242 128.625 301.035 129.785 300.109C130.957 299.184 132.504 298.721 134.426 298.721C135.715 298.721 136.816 298.961 137.73 299.441C138.656 299.91 139.33 300.584 139.752 301.463L137.045 303.326C136.846 302.799 136.494 302.383 135.99 302.078C135.498 301.762 134.924 301.604 134.268 301.604C133.541 301.604 132.955 301.779 132.51 302.131C132.076 302.471 131.859 302.928 131.859 303.502C131.859 304.369 132.844 305.16 134.812 305.875C135.434 306.098 135.914 306.279 136.254 306.42C137.789 307.029 138.885 307.721 139.541 308.494C140.209 309.256 140.543 310.211 140.543 311.359C140.543 313.023 139.939 314.33 138.732 315.279C137.525 316.217 135.861 316.686 133.74 316.686C132.111 316.686 130.758 316.381 129.68 315.771C128.601 315.162 127.758 314.23 127.148 312.977ZM146.729 316V302.676H143.811V299.336H146.729V293.025H150.543V299.336H153.461V302.676H150.543V316H146.729ZM161.898 299.336V308.723C161.898 310.34 162.231 311.5 162.899 312.203C163.567 312.906 164.651 313.258 166.151 313.258C167.651 313.258 168.735 312.906 169.403 312.203C170.071 311.5 170.405 310.34 170.405 308.723V299.336H174.22V307.58C174.22 310.768 173.581 313.082 172.304 314.523C171.026 315.965 168.987 316.686 166.187 316.686C163.339 316.686 161.276 315.971 159.999 314.541C158.722 313.111 158.083 310.791 158.083 307.58V299.336H161.898ZM192.781 307.615C192.781 305.893 192.377 304.551 191.568 303.59C190.771 302.629 189.652 302.148 188.211 302.148C186.769 302.148 185.632 302.646 184.8 303.643C183.98 304.627 183.57 305.998 183.57 307.756C183.57 309.525 183.968 310.891 184.765 311.852C185.562 312.812 186.687 313.293 188.14 313.293C189.523 313.293 190.642 312.777 191.498 311.746C192.353 310.703 192.781 309.326 192.781 307.615ZM192.675 288.754H196.49V316H192.675V313.838C191.996 314.799 191.199 315.514 190.285 315.982C189.382 316.451 188.345 316.686 187.173 316.686C184.818 316.686 182.961 315.883 181.601 314.277C180.254 312.66 179.58 310.451 179.58 307.65C179.58 304.99 180.271 302.846 181.654 301.217C183.037 299.576 184.841 298.756 187.068 298.756C188.427 298.756 189.587 299.043 190.548 299.617C191.521 300.18 192.23 300.994 192.675 302.061V288.754ZM219.252 308.23H205.928C206.022 309.789 206.485 311.008 207.317 311.887C208.149 312.754 209.256 313.188 210.639 313.188C211.869 313.188 212.895 312.93 213.715 312.414C214.535 311.898 215.25 311.066 215.86 309.918L219.076 311.711C218.139 313.387 216.979 314.635 215.596 315.455C214.213 316.275 212.59 316.686 210.727 316.686C208.055 316.686 205.928 315.871 204.346 314.242C202.764 312.613 201.973 310.439 201.973 307.721C201.973 305.107 202.787 302.963 204.416 301.287C206.057 299.6 208.16 298.756 210.727 298.756C213.41 298.756 215.502 299.523 217.002 301.059C218.502 302.594 219.252 304.744 219.252 307.51V308.23ZM215.297 305.664C215.145 304.469 214.688 303.561 213.926 302.939C213.164 302.307 212.121 301.99 210.797 301.99C209.543 301.99 208.535 302.295 207.774 302.904C207.012 303.514 206.479 304.434 206.174 305.664H215.297ZM224.682 316V299.336H228.268V302.061C229.03 300.912 229.926 300.074 230.958 299.547C231.989 299.02 233.243 298.756 234.719 298.756C235.962 298.756 237.016 298.955 237.884 299.354C238.762 299.74 239.448 300.32 239.94 301.094C240.233 301.551 240.444 302.084 240.573 302.693C240.702 303.303 240.766 304.369 240.766 305.893V316H236.917V307.439C236.917 305.248 236.647 303.795 236.108 303.08C235.581 302.354 234.637 301.99 233.278 301.99C232.387 301.99 231.591 302.154 230.887 302.482C230.196 302.811 229.651 303.273 229.253 303.871C228.971 304.27 228.772 304.785 228.655 305.418C228.55 306.039 228.497 307.035 228.497 308.406V316H224.682ZM248.183 316V302.676H245.265V299.336H248.183V293.025H251.997V299.336H254.915V302.676H251.997V316H248.183ZM275.778 316H271.963V299.336H275.549V302.061C276.311 300.9 277.172 300.057 278.133 299.529C279.106 298.99 280.248 298.721 281.561 298.721C282.862 298.721 283.94 298.996 284.795 299.547C285.651 300.086 286.301 300.912 286.746 302.025C287.625 300.877 288.557 300.039 289.541 299.512C290.538 298.984 291.668 298.721 292.934 298.721C294.036 298.721 294.996 298.926 295.817 299.336C296.637 299.734 297.276 300.32 297.733 301.094C297.944 301.457 298.096 301.891 298.19 302.395C298.295 302.898 298.348 303.619 298.348 304.557V305.893V316H294.534V307.439C294.534 305.201 294.293 303.73 293.813 303.027C293.344 302.312 292.5 301.955 291.282 301.955C289.782 301.955 288.709 302.436 288.065 303.396C287.432 304.346 287.116 306.016 287.116 308.406V316H283.266V307.439C283.266 305.377 283.014 303.947 282.51 303.15C282.018 302.354 281.163 301.955 279.944 301.955C279.194 301.955 278.508 302.125 277.887 302.465C277.266 302.805 276.774 303.273 276.411 303.871C276.176 304.258 276.012 304.732 275.918 305.295C275.825 305.857 275.778 306.895 275.778 308.406V316ZM320.583 316H316.769V313.838C316.089 314.799 315.292 315.514 314.378 315.982C313.476 316.451 312.438 316.686 311.267 316.686C308.911 316.686 307.054 315.883 305.694 314.277C304.347 312.66 303.673 310.451 303.673 307.65C303.673 304.99 304.364 302.846 305.747 301.217C307.13 299.576 308.935 298.756 311.161 298.756C312.52 298.756 313.681 299.043 314.642 299.617C315.614 300.18 316.323 300.994 316.769 302.061V299.336H320.583V316ZM316.874 307.615C316.874 305.893 316.47 304.551 315.661 303.59C314.864 302.629 313.745 302.148 312.304 302.148C310.862 302.148 309.726 302.646 308.894 303.643C308.073 304.627 307.663 305.998 307.663 307.756C307.663 309.525 308.061 310.891 308.858 311.852C309.655 312.812 310.78 313.293 312.233 313.293C313.604 313.293 314.718 312.771 315.573 311.729C316.44 310.686 316.874 309.314 316.874 307.615ZM326.962 292.129C326.962 291.484 327.197 290.928 327.666 290.459C328.146 289.99 328.714 289.756 329.371 289.756C330.05 289.756 330.613 289.984 331.058 290.441C331.515 290.887 331.744 291.449 331.744 292.129C331.744 292.809 331.515 293.383 331.058 293.852C330.601 294.309 330.039 294.537 329.371 294.537C328.714 294.537 328.146 294.303 327.666 293.834C327.197 293.354 326.962 292.785 326.962 292.129ZM327.472 323.84V299.336H331.287V323.84H327.472ZM351.289 307.721C351.289 306.174 350.791 304.867 349.795 303.801C348.799 302.723 347.58 302.184 346.139 302.184C344.709 302.184 343.49 302.723 342.483 303.801C341.486 304.867 340.988 306.174 340.988 307.721C340.988 309.268 341.486 310.58 342.483 311.658C343.49 312.725 344.709 313.258 346.139 313.258C347.568 313.258 348.781 312.725 349.777 311.658C350.785 310.58 351.289 309.268 351.289 307.721ZM336.963 307.686C336.963 306.467 337.191 305.318 337.649 304.24C338.117 303.15 338.785 302.184 339.652 301.34C340.508 300.508 341.492 299.869 342.606 299.424C343.719 298.979 344.885 298.756 346.104 298.756C347.358 298.756 348.535 298.979 349.637 299.424C350.75 299.869 351.746 300.525 352.625 301.393C353.504 302.248 354.172 303.215 354.629 304.293C355.086 305.371 355.315 306.502 355.315 307.686C355.315 308.916 355.086 310.07 354.629 311.148C354.184 312.227 353.527 313.182 352.66 314.014C351.746 314.893 350.733 315.555 349.619 316C348.506 316.457 347.334 316.686 346.104 316.686C344.897 316.686 343.736 316.457 342.623 316C341.51 315.555 340.52 314.904 339.652 314.049C338.774 313.182 338.106 312.209 337.649 311.131C337.191 310.053 336.963 308.904 336.963 307.686ZM364.612 301.99C365.022 300.889 365.561 300.074 366.229 299.547C366.909 299.02 367.747 298.756 368.743 298.756C369.282 298.756 369.809 298.82 370.325 298.949C370.852 299.078 371.368 299.266 371.872 299.512L370.501 302.746C370.173 302.512 369.815 302.342 369.428 302.236C369.053 302.119 368.632 302.061 368.163 302.061C366.897 302.061 365.989 302.57 365.438 303.59C364.887 304.598 364.612 306.297 364.612 308.688V316H360.798V299.301H364.612V301.99ZM375.157 292.129C375.157 291.484 375.392 290.928 375.861 290.459C376.341 289.99 376.909 289.756 377.566 289.756C378.245 289.756 378.808 289.984 379.253 290.441C379.71 290.887 379.939 291.449 379.939 292.129C379.939 292.809 379.71 293.383 379.253 293.852C378.796 294.309 378.234 294.537 377.566 294.537C376.909 294.537 376.341 294.303 375.861 293.834C375.392 293.354 375.157 292.785 375.157 292.129ZM375.667 316V299.336H379.482V316H375.667ZM386.388 316V299.336H389.974V302.061C390.736 300.912 391.633 300.074 392.664 299.547C393.695 299.02 394.949 298.756 396.426 298.756C397.668 298.756 398.722 298.955 399.59 299.354C400.469 299.74 401.154 300.32 401.646 301.094C401.939 301.551 402.15 302.084 402.279 302.693C402.408 303.303 402.472 304.369 402.472 305.893V316H398.623V307.439C398.623 305.248 398.353 303.795 397.814 303.08C397.287 302.354 396.344 301.99 394.984 301.99C394.094 301.99 393.297 302.154 392.594 302.482C391.902 302.811 391.357 303.273 390.959 303.871C390.677 304.27 390.478 304.785 390.361 305.418C390.256 306.039 390.203 307.035 390.203 308.406V316H386.388ZM420.963 307.615C420.963 305.893 420.559 304.551 419.75 303.59C418.953 302.629 417.834 302.148 416.393 302.148C414.951 302.148 413.815 302.646 412.983 303.643C412.162 304.627 411.752 305.998 411.752 307.756C411.752 309.525 412.151 310.891 412.948 311.852C413.744 312.812 414.869 313.293 416.323 313.293C417.694 313.293 418.807 312.771 419.662 311.729C420.53 310.686 420.963 309.314 420.963 307.615ZM424.672 314.963C424.672 318.221 424.022 320.512 422.721 321.836C421.42 323.172 419.229 323.84 416.147 323.84C413.85 323.84 412.016 323.354 410.645 322.381C409.274 321.42 408.576 320.137 408.553 318.531L412.649 318.514C412.707 319.229 413.041 319.773 413.651 320.148C414.26 320.523 415.116 320.711 416.217 320.711C417.846 320.711 419.018 320.354 419.733 319.639C420.448 318.924 420.811 317.729 420.823 316.053L420.858 313.838C420.178 314.799 419.381 315.514 418.467 315.982C417.565 316.451 416.528 316.686 415.356 316.686C413 316.686 411.143 315.883 409.784 314.277C408.436 312.66 407.762 310.451 407.762 307.65C407.762 304.99 408.453 302.846 409.836 301.217C411.219 299.576 413.024 298.756 415.25 298.756C416.61 298.756 417.77 299.043 418.731 299.617C419.703 300.18 420.412 300.994 420.858 302.061V299.336H424.672V314.963ZM443.355 292.129C443.355 291.484 443.589 290.928 444.058 290.459C444.539 289.99 445.107 289.756 445.763 289.756C446.443 289.756 447.005 289.984 447.451 290.441C447.908 290.887 448.136 291.449 448.136 292.129C448.136 292.809 447.908 293.383 447.451 293.852C446.994 294.309 446.431 294.537 445.763 294.537C445.107 294.537 444.539 294.303 444.058 293.834C443.589 293.354 443.355 292.785 443.355 292.129ZM443.865 316V299.336H447.679V316H443.865ZM454.586 316V299.336H458.172V302.061C458.934 300.912 459.83 300.074 460.861 299.547C461.893 299.02 463.146 298.756 464.623 298.756C465.865 298.756 466.92 298.955 467.787 299.354C468.666 299.74 469.352 300.32 469.844 301.094C470.137 301.551 470.348 302.084 470.477 302.693C470.605 303.303 470.67 304.369 470.67 305.893V316H466.82V307.439C466.82 305.248 466.551 303.795 466.012 303.08C465.484 302.354 464.541 301.99 463.182 301.99C462.291 301.99 461.494 302.154 460.791 302.482C460.1 302.811 459.555 303.273 459.156 303.871C458.875 304.27 458.676 304.785 458.559 305.418C458.453 306.039 458.4 307.035 458.4 308.406V316H454.586ZM208.214 360.002L204.364 351.336C204.071 350.668 203.831 350.076 203.643 349.561C203.456 349.033 203.286 348.518 203.134 348.014C202.876 348.775 202.647 349.432 202.448 349.982C202.249 350.521 202.091 350.926 201.974 351.195L198.018 360.002L189.388 342.336H193.448L197.192 350.369C197.345 350.709 197.491 351.178 197.632 351.775C197.784 352.361 197.913 353.012 198.018 353.727C198.03 353.305 198.1 352.865 198.229 352.408C198.358 351.951 198.575 351.389 198.88 350.721L202.958 341.721H203.274L207.423 350.721C207.681 351.283 207.868 351.805 207.985 352.285C208.114 352.766 208.19 353.246 208.214 353.727C208.319 353.094 208.454 352.496 208.618 351.934C208.782 351.371 208.97 350.861 209.181 350.404L212.854 342.336H216.88L208.214 360.002ZM220.71 359V331.754H224.296V345.061C225.058 343.912 225.955 343.074 226.986 342.547C228.017 342.02 229.271 341.756 230.747 341.756C231.99 341.756 233.044 341.955 233.912 342.354C234.79 342.74 235.476 343.32 235.968 344.094C236.261 344.551 236.472 345.084 236.601 345.693C236.73 346.303 236.794 347.369 236.794 348.893V359H232.945V350.439C232.945 348.248 232.675 346.795 232.136 346.08C231.609 345.354 230.665 344.99 229.306 344.99C228.415 344.99 227.619 345.154 226.915 345.482C226.224 345.811 225.679 346.273 225.281 346.871C224.999 347.27 224.8 347.785 224.683 348.418C224.578 349.039 224.525 350.035 224.525 351.406V359H220.71ZM256.41 350.721C256.41 349.174 255.912 347.867 254.916 346.801C253.92 345.723 252.701 345.184 251.26 345.184C249.83 345.184 248.611 345.723 247.604 346.801C246.607 347.867 246.109 349.174 246.109 350.721C246.109 352.268 246.607 353.58 247.604 354.658C248.611 355.725 249.83 356.258 251.26 356.258C252.689 356.258 253.902 355.725 254.898 354.658C255.906 353.58 256.41 352.268 256.41 350.721ZM242.084 350.686C242.084 349.467 242.312 348.318 242.77 347.24C243.238 346.15 243.906 345.184 244.773 344.34C245.629 343.508 246.613 342.869 247.727 342.424C248.84 341.979 250.006 341.756 251.225 341.756C252.479 341.756 253.656 341.979 254.758 342.424C255.871 342.869 256.867 343.525 257.746 344.393C258.625 345.248 259.293 346.215 259.75 347.293C260.207 348.371 260.436 349.502 260.436 350.686C260.436 351.916 260.207 353.07 259.75 354.148C259.305 355.227 258.648 356.182 257.781 357.014C256.867 357.893 255.854 358.555 254.74 359C253.627 359.457 252.455 359.686 251.225 359.686C250.018 359.686 248.857 359.457 247.744 359C246.631 358.555 245.641 357.904 244.773 357.049C243.895 356.182 243.227 355.209 242.77 354.131C242.312 353.053 242.084 351.904 242.084 350.686ZM293.901 359H290.087V356.838C289.407 357.799 288.61 358.514 287.696 358.982C286.794 359.451 285.757 359.686 284.585 359.686C282.23 359.686 280.372 358.883 279.013 357.277C277.665 355.66 276.991 353.451 276.991 350.65C276.991 347.99 277.683 345.846 279.066 344.217C280.448 342.576 282.253 341.756 284.48 341.756C285.839 341.756 286.999 342.043 287.96 342.617C288.933 343.18 289.642 343.994 290.087 345.061V342.336H293.901V359ZM290.193 350.615C290.193 348.893 289.788 347.551 288.98 346.59C288.183 345.629 287.064 345.148 285.622 345.148C284.181 345.148 283.044 345.646 282.212 346.643C281.392 347.627 280.982 348.998 280.982 350.756C280.982 352.525 281.38 353.891 282.177 354.852C282.974 355.812 284.099 356.293 285.552 356.293C286.923 356.293 288.036 355.771 288.892 354.729C289.759 353.686 290.193 352.314 290.193 350.615ZM300.791 359V331.754H304.605V359H300.791ZM309.596 355.977L312.76 354.254C312.994 355.086 313.428 355.719 314.061 356.152C314.694 356.586 315.508 356.803 316.504 356.803C317.36 356.803 318.028 356.609 318.508 356.223C319 355.824 319.246 355.285 319.246 354.605C319.246 353.703 318.379 352.93 316.645 352.285C316.059 352.074 315.608 351.898 315.291 351.758C313.51 351.02 312.262 350.27 311.547 349.508C310.844 348.746 310.492 347.82 310.492 346.73C310.492 345.242 311.073 344.035 312.233 343.109C313.405 342.184 314.951 341.721 316.873 341.721C318.162 341.721 319.264 341.961 320.178 342.441C321.104 342.91 321.778 343.584 322.199 344.463L319.492 346.326C319.293 345.799 318.942 345.383 318.438 345.078C317.946 344.762 317.371 344.604 316.715 344.604C315.989 344.604 315.403 344.779 314.957 345.131C314.524 345.471 314.307 345.928 314.307 346.502C314.307 347.369 315.291 348.16 317.26 348.875C317.881 349.098 318.362 349.279 318.701 349.42C320.237 350.029 321.332 350.721 321.989 351.494C322.656 352.256 322.99 353.211 322.99 354.359C322.99 356.023 322.387 357.33 321.18 358.279C319.973 359.217 318.309 359.686 316.188 359.686C314.559 359.686 313.205 359.381 312.127 358.771C311.049 358.162 310.205 357.23 309.596 355.977ZM341.376 350.721C341.376 349.174 340.878 347.867 339.882 346.801C338.886 345.723 337.667 345.184 336.225 345.184C334.796 345.184 333.577 345.723 332.569 346.801C331.573 347.867 331.075 349.174 331.075 350.721C331.075 352.268 331.573 353.58 332.569 354.658C333.577 355.725 334.796 356.258 336.225 356.258C337.655 356.258 338.868 355.725 339.864 354.658C340.872 353.58 341.376 352.268 341.376 350.721ZM327.05 350.686C327.05 349.467 327.278 348.318 327.735 347.24C328.204 346.15 328.872 345.184 329.739 344.34C330.595 343.508 331.579 342.869 332.692 342.424C333.805 341.979 334.971 341.756 336.19 341.756C337.444 341.756 338.622 341.979 339.723 342.424C340.837 342.869 341.833 343.525 342.712 344.393C343.591 345.248 344.259 346.215 344.716 347.293C345.173 348.371 345.401 349.502 345.401 350.686C345.401 351.916 345.173 353.07 344.716 354.148C344.27 355.227 343.614 356.182 342.747 357.014C341.833 357.893 340.819 358.555 339.706 359C338.593 359.457 337.421 359.686 336.19 359.686C334.983 359.686 333.823 359.457 332.71 359C331.596 358.555 330.606 357.904 329.739 357.049C328.86 356.182 328.192 355.209 327.735 354.131C327.278 353.053 327.05 351.904 327.05 350.686ZM363.363 359V331.754H367.178V359H363.363ZM373.75 335.129C373.75 334.484 373.985 333.928 374.454 333.459C374.934 332.99 375.502 332.756 376.159 332.756C376.838 332.756 377.401 332.984 377.846 333.441C378.303 333.887 378.532 334.449 378.532 335.129C378.532 335.809 378.303 336.383 377.846 336.852C377.389 337.309 376.827 337.537 376.159 337.537C375.502 337.537 374.934 337.303 374.454 336.834C373.985 336.354 373.75 335.785 373.75 335.129ZM374.26 359V342.336H378.075V359H374.26ZM384.981 359V331.754H388.796V349.244L395.774 342.336H400.485L392.927 349.684L401.206 359H396.284L388.796 350.404V359H384.981ZM421.068 351.23H407.744C407.837 352.789 408.3 354.008 409.132 354.887C409.964 355.754 411.072 356.188 412.455 356.188C413.685 356.188 414.711 355.93 415.531 355.414C416.351 354.898 417.066 354.066 417.675 352.918L420.892 354.711C419.955 356.387 418.795 357.635 417.412 358.455C416.029 359.275 414.406 359.686 412.543 359.686C409.871 359.686 407.744 358.871 406.162 357.242C404.58 355.613 403.789 353.439 403.789 350.721C403.789 348.107 404.603 345.963 406.232 344.287C407.873 342.6 409.976 341.756 412.543 341.756C415.226 341.756 417.318 342.523 418.818 344.059C420.318 345.594 421.068 347.744 421.068 350.51V351.23ZM417.113 348.664C416.961 347.469 416.504 346.561 415.742 345.939C414.98 345.307 413.937 344.99 412.613 344.99C411.359 344.99 410.351 345.295 409.589 345.904C408.828 346.514 408.295 347.434 407.99 348.664H417.113ZM424.582 355.977L427.746 354.254C427.981 355.086 428.414 355.719 429.047 356.152C429.68 356.586 430.494 356.803 431.49 356.803C432.346 356.803 433.014 356.609 433.494 356.223C433.986 355.824 434.233 355.285 434.233 354.605C434.233 353.703 433.365 352.93 431.631 352.285C431.045 352.074 430.594 351.898 430.277 351.758C428.496 351.02 427.248 350.27 426.533 349.508C425.83 348.746 425.479 347.82 425.479 346.73C425.479 345.242 426.059 344.035 427.219 343.109C428.391 342.184 429.938 341.721 431.86 341.721C433.149 341.721 434.25 341.961 435.164 342.441C436.09 342.91 436.764 343.584 437.186 344.463L434.479 346.326C434.279 345.799 433.928 345.383 433.424 345.078C432.932 344.762 432.358 344.604 431.701 344.604C430.975 344.604 430.389 344.779 429.944 345.131C429.51 345.471 429.293 345.928 429.293 346.502C429.293 347.369 430.277 348.16 432.246 348.875C432.867 349.098 433.348 349.279 433.688 349.42C435.223 350.029 436.319 350.721 436.975 351.494C437.643 352.256 437.977 353.211 437.977 354.359C437.977 356.023 437.373 357.33 436.166 358.279C434.959 359.217 433.295 359.686 431.174 359.686C429.545 359.686 428.192 359.381 427.113 358.771C426.035 358.162 425.192 357.23 424.582 355.977ZM605.782 359H601.968V356.838C601.288 357.799 600.491 358.514 599.577 358.982C598.675 359.451 597.638 359.686 596.466 359.686C594.111 359.686 592.253 358.883 590.894 357.277C589.546 355.66 588.872 353.451 588.872 350.65C588.872 347.99 589.564 345.846 590.946 344.217C592.329 342.576 594.134 341.756 596.361 341.756C597.72 341.756 598.88 342.043 599.841 342.617C600.814 343.18 601.523 343.994 601.968 345.061V342.336H605.782V359ZM602.073 350.615C602.073 348.893 601.669 347.551 600.861 346.59C600.064 345.629 598.945 345.148 597.503 345.148C596.062 345.148 594.925 345.646 594.093 346.643C593.273 347.627 592.862 348.998 592.862 350.756C592.862 352.525 593.261 353.891 594.058 354.852C594.855 355.812 595.98 356.293 597.433 356.293C598.804 356.293 599.917 355.771 600.773 354.729C601.64 353.686 602.073 352.314 602.073 350.615ZM612.496 359V342.336H616.082V345.061C616.844 343.912 617.74 343.074 618.771 342.547C619.802 342.02 621.056 341.756 622.533 341.756C623.775 341.756 624.83 341.955 625.697 342.354C626.576 342.74 627.261 343.32 627.754 344.094C628.047 344.551 628.258 345.084 628.386 345.693C628.515 346.303 628.58 347.369 628.58 348.893V359H624.73V350.439C624.73 348.248 624.461 346.795 623.922 346.08C623.394 345.354 622.451 344.99 621.092 344.99C620.201 344.99 619.404 345.154 618.701 345.482C618.01 345.811 617.465 346.273 617.066 346.871C616.785 347.27 616.586 347.785 616.469 348.418C616.363 349.039 616.31 350.035 616.31 351.406V359H612.496ZM647.071 350.615C647.071 348.893 646.666 347.551 645.858 346.59C645.061 345.629 643.942 345.148 642.5 345.148C641.059 345.148 639.922 345.646 639.09 346.643C638.27 347.627 637.86 348.998 637.86 350.756C637.86 352.525 638.258 353.891 639.055 354.852C639.852 355.812 640.977 356.293 642.43 356.293C643.813 356.293 644.932 355.777 645.787 354.746C646.643 353.703 647.071 352.326 647.071 350.615ZM646.965 331.754H650.78V359H646.965V356.838C646.285 357.799 645.489 358.514 644.575 358.982C643.672 359.451 642.635 359.686 641.463 359.686C639.108 359.686 637.25 358.883 635.891 357.277C634.543 355.66 633.869 353.451 633.869 350.65C633.869 347.99 634.561 345.846 635.944 344.217C637.326 342.576 639.131 341.756 641.358 341.756C642.717 341.756 643.877 342.043 644.838 342.617C645.811 343.18 646.52 343.994 646.965 345.061V331.754ZM722.632 357.049C722.632 356.404 722.855 355.854 723.3 355.396C723.745 354.939 724.29 354.711 724.935 354.711C725.579 354.711 726.124 354.939 726.569 355.396C727.015 355.854 727.237 356.404 727.237 357.049C727.237 357.682 727.015 358.221 726.569 358.666C726.124 359.1 725.579 359.316 724.935 359.316C724.29 359.316 723.745 359.1 723.3 358.666C722.855 358.221 722.632 357.682 722.632 357.049Z" fill="black"/>
<path d="M489.88 316V290.266H494.064V316H489.88ZM501.199 316V299.336H504.785V302.061C505.547 300.912 506.443 300.074 507.474 299.547C508.506 299.02 509.759 298.756 511.236 298.756C512.478 298.756 513.533 298.955 514.4 299.354C515.279 299.74 515.965 300.32 516.457 301.094C516.75 301.551 516.961 302.084 517.09 302.693C517.218 303.303 517.283 304.369 517.283 305.893V316H513.433V307.439C513.433 305.248 513.164 303.795 512.625 303.08C512.097 302.354 511.154 301.99 509.795 301.99C508.904 301.99 508.107 302.154 507.404 302.482C506.713 302.811 506.168 303.273 505.769 303.871C505.488 304.27 505.289 304.785 505.172 305.418C505.066 306.039 505.013 307.035 505.013 308.406V316H501.199ZM524.33 316V302.676H521.412V299.336H524.33V294.871C524.33 292.656 524.787 291.021 525.701 289.967C526.627 288.912 528.057 288.385 529.99 288.385C530.401 288.385 530.823 288.414 531.256 288.473C531.69 288.531 532.129 288.625 532.574 288.754V292.199C532.27 292.023 531.959 291.895 531.643 291.812C531.338 291.719 531.028 291.672 530.711 291.672C529.797 291.672 529.141 291.953 528.742 292.516C528.344 293.078 528.145 294.027 528.145 295.363V299.336H532.153V302.676H528.145V316H524.33ZM549.378 307.721C549.378 306.174 548.88 304.867 547.884 303.801C546.888 302.723 545.669 302.184 544.227 302.184C542.798 302.184 541.579 302.723 540.571 303.801C539.575 304.867 539.077 306.174 539.077 307.721C539.077 309.268 539.575 310.58 540.571 311.658C541.579 312.725 542.798 313.258 544.227 313.258C545.657 313.258 546.87 312.725 547.866 311.658C548.874 310.58 549.378 309.268 549.378 307.721ZM535.052 307.686C535.052 306.467 535.28 305.318 535.737 304.24C536.206 303.15 536.874 302.184 537.741 301.34C538.596 300.508 539.581 299.869 540.694 299.424C541.807 298.979 542.973 298.756 544.192 298.756C545.446 298.756 546.624 298.979 547.725 299.424C548.839 299.869 549.835 300.525 550.714 301.393C551.593 302.248 552.261 303.215 552.718 304.293C553.175 305.371 553.403 306.502 553.403 307.686C553.403 308.916 553.175 310.07 552.718 311.148C552.272 312.227 551.616 313.182 550.749 314.014C549.835 314.893 548.821 315.555 547.708 316C546.595 316.457 545.423 316.686 544.192 316.686C542.985 316.686 541.825 316.457 540.712 316C539.598 315.555 538.608 314.904 537.741 314.049C536.862 313.182 536.194 312.209 535.737 311.131C535.28 310.053 535.052 308.904 535.052 307.686ZM562.701 301.99C563.111 300.889 563.65 300.074 564.318 299.547C564.997 299.02 565.835 298.756 566.831 298.756C567.37 298.756 567.898 298.82 568.413 298.949C568.941 299.078 569.456 299.266 569.96 299.512L568.589 302.746C568.261 302.512 567.904 302.342 567.517 302.236C567.142 302.119 566.72 302.061 566.251 302.061C564.986 302.061 564.078 302.57 563.527 303.59C562.976 304.598 562.701 306.297 562.701 308.688V316H558.886V299.301H562.701V301.99ZM577.394 316H573.58V299.336H577.166V302.061C577.928 300.9 578.789 300.057 579.75 299.529C580.723 298.99 581.865 298.721 583.178 298.721C584.478 298.721 585.557 298.996 586.412 299.547C587.268 300.086 587.918 300.912 588.363 302.025C589.242 300.877 590.174 300.039 591.158 299.512C592.154 298.984 593.285 298.721 594.551 298.721C595.652 298.721 596.613 298.926 597.434 299.336C598.254 299.734 598.893 300.32 599.35 301.094C599.56 301.457 599.713 301.891 599.807 302.395C599.912 302.898 599.965 303.619 599.965 304.557V305.893V316H596.15V307.439C596.15 305.201 595.91 303.73 595.43 303.027C594.961 302.312 594.117 301.955 592.898 301.955C591.398 301.955 590.326 302.436 589.682 303.396C589.049 304.346 588.732 306.016 588.732 308.406V316H584.883V307.439C584.883 305.377 584.631 303.947 584.127 303.15C583.635 302.354 582.779 301.955 581.56 301.955C580.81 301.955 580.125 302.125 579.504 302.465C578.883 302.805 578.391 303.273 578.027 303.871C577.793 304.258 577.629 304.732 577.535 305.295C577.441 305.857 577.394 306.895 577.394 308.406V316ZM622.2 316H618.385V313.838C617.706 314.799 616.909 315.514 615.995 315.982C615.092 316.451 614.055 316.686 612.883 316.686C610.528 316.686 608.67 315.883 607.311 314.277C605.963 312.66 605.29 310.451 605.29 307.65C605.29 304.99 605.981 302.846 607.364 301.217C608.747 299.576 610.551 298.756 612.778 298.756C614.137 298.756 615.297 299.043 616.258 299.617C617.231 300.18 617.94 300.994 618.385 302.061V299.336H622.2V316ZM618.491 307.615C618.491 305.893 618.086 304.551 617.278 303.59C616.481 302.629 615.362 302.148 613.92 302.148C612.479 302.148 611.342 302.646 610.51 303.643C609.69 304.627 609.28 305.998 609.28 307.756C609.28 309.525 609.678 310.891 610.475 311.852C611.272 312.812 612.397 313.293 613.85 313.293C615.221 313.293 616.334 312.771 617.19 311.729C618.057 310.686 618.491 309.314 618.491 307.615ZM629.81 316V302.676H626.892V299.336H629.81V293.025H633.624V299.336H636.542V302.676H633.624V316H629.81ZM640.953 292.129C640.953 291.484 641.187 290.928 641.656 290.459C642.136 289.99 642.705 289.756 643.361 289.756C644.041 289.756 644.603 289.984 645.048 290.441C645.505 290.887 645.734 291.449 645.734 292.129C645.734 292.809 645.505 293.383 645.048 293.852C644.591 294.309 644.029 294.537 643.361 294.537C642.705 294.537 642.136 294.303 641.656 293.834C641.187 293.354 640.953 292.785 640.953 292.129ZM641.463 316V299.336H645.277V316H641.463ZM664.629 304.082C664.043 303.438 663.358 302.945 662.572 302.605C661.799 302.266 660.961 302.096 660.059 302.096C658.5 302.096 657.252 302.6 656.315 303.607C655.377 304.615 654.908 305.951 654.908 307.615C654.908 309.35 655.377 310.715 656.315 311.711C657.264 312.695 658.57 313.188 660.235 313.188C661.16 313.188 661.987 313.018 662.713 312.678C663.44 312.326 664.078 311.799 664.629 311.096V315.49C663.926 315.889 663.17 316.188 662.362 316.387C661.565 316.586 660.715 316.686 659.813 316.686C657.199 316.686 655.067 315.854 653.414 314.189C651.774 312.525 650.953 310.369 650.953 307.721C650.953 305.037 651.803 302.875 653.502 301.234C655.213 299.582 657.445 298.756 660.199 298.756C661.067 298.756 661.863 298.844 662.59 299.02C663.317 299.184 663.996 299.441 664.629 299.793V304.082ZM668.055 312.977L671.219 311.254C671.454 312.086 671.887 312.719 672.52 313.152C673.153 313.586 673.968 313.803 674.964 313.803C675.819 313.803 676.487 313.609 676.968 313.223C677.46 312.824 677.706 312.285 677.706 311.605C677.706 310.703 676.839 309.93 675.104 309.285C674.518 309.074 674.067 308.898 673.751 308.758C671.969 308.02 670.721 307.27 670.007 306.508C669.303 305.746 668.952 304.82 668.952 303.73C668.952 302.242 669.532 301.035 670.692 300.109C671.864 299.184 673.411 298.721 675.333 298.721C676.622 298.721 677.723 298.961 678.637 299.441C679.563 299.91 680.237 300.584 680.659 301.463L677.952 303.326C677.753 302.799 677.401 302.383 676.897 302.078C676.405 301.762 675.831 301.604 675.175 301.604C674.448 301.604 673.862 301.779 673.417 302.131C672.983 302.471 672.766 302.928 672.766 303.502C672.766 304.369 673.751 305.16 675.719 305.875C676.341 306.098 676.821 306.279 677.161 306.42C678.696 307.029 679.792 307.721 680.448 308.494C681.116 309.256 681.45 310.211 681.45 311.359C681.45 313.023 680.846 314.33 679.639 315.279C678.432 316.217 676.768 316.686 674.647 316.686C673.018 316.686 671.665 316.381 670.587 315.771C669.509 315.162 668.665 314.23 668.055 312.977ZM699.359 316V290.266H713.721V293.816H703.543V300.268H713.721V303.941H703.543V312.256H713.721V316H699.359ZM719.643 316V299.336H723.229V302.061C723.991 300.912 724.887 300.074 725.918 299.547C726.95 299.02 728.203 298.756 729.68 298.756C730.922 298.756 731.977 298.955 732.844 299.354C733.723 299.74 734.409 300.32 734.901 301.094C735.194 301.551 735.405 302.084 735.534 302.693C735.662 303.303 735.727 304.369 735.727 305.893V316H731.877V307.439C731.877 305.248 731.608 303.795 731.069 303.08C730.541 302.354 729.598 301.99 728.239 301.99C727.348 301.99 726.551 302.154 725.848 302.482C725.157 302.811 724.612 303.273 724.213 303.871C723.932 304.27 723.733 304.785 723.616 305.418C723.51 306.039 723.457 307.035 723.457 308.406V316H719.643ZM754.218 307.615C754.218 305.893 753.813 304.551 753.005 303.59C752.208 302.629 751.089 302.148 749.647 302.148C748.206 302.148 747.069 302.646 746.237 303.643C745.417 304.627 745.007 305.998 745.007 307.756C745.007 309.525 745.405 310.891 746.202 311.852C746.999 312.812 748.124 313.293 749.577 313.293C750.948 313.293 752.061 312.771 752.917 311.729C753.784 310.686 754.218 309.314 754.218 307.615ZM757.927 314.963C757.927 318.221 757.276 320.512 755.976 321.836C754.675 323.172 752.483 323.84 749.401 323.84C747.104 323.84 745.27 323.354 743.899 322.381C742.528 321.42 741.831 320.137 741.808 318.531L745.903 318.514C745.962 319.229 746.296 319.773 746.905 320.148C747.515 320.523 748.37 320.711 749.472 320.711C751.101 320.711 752.272 320.354 752.987 319.639C753.702 318.924 754.065 317.729 754.077 316.053L754.112 313.838C753.433 314.799 752.636 315.514 751.722 315.982C750.819 316.451 749.782 316.686 748.61 316.686C746.255 316.686 744.397 315.883 743.038 314.277C741.69 312.66 741.017 310.451 741.017 307.65C741.017 304.99 741.708 302.846 743.091 301.217C744.474 299.576 746.278 298.756 748.505 298.756C749.864 298.756 751.024 299.043 751.985 299.617C752.958 300.18 753.667 300.994 754.112 302.061V299.336H757.927V314.963ZM764.306 292.129C764.306 291.484 764.541 290.928 765.009 290.459C765.49 289.99 766.058 289.756 766.714 289.756C767.394 289.756 767.957 289.984 768.402 290.441C768.859 290.887 769.087 291.449 769.087 292.129C769.087 292.809 768.859 293.383 768.402 293.852C767.945 294.309 767.382 294.537 766.714 294.537C766.058 294.537 765.49 294.303 765.009 293.834C764.541 293.354 764.306 292.785 764.306 292.129ZM764.816 316V299.336H768.63V316H764.816ZM775.537 316V299.336H779.123V302.061C779.885 300.912 780.781 300.074 781.813 299.547C782.844 299.02 784.098 298.756 785.574 298.756C786.816 298.756 787.871 298.955 788.738 299.354C789.617 299.74 790.303 300.32 790.795 301.094C791.088 301.551 791.299 302.084 791.428 302.693C791.557 303.303 791.621 304.369 791.621 305.893V316H787.772V307.439C787.772 305.248 787.502 303.795 786.963 303.08C786.436 302.354 785.492 301.99 784.133 301.99C783.242 301.99 782.445 302.154 781.742 302.482C781.051 302.811 780.506 303.273 780.107 303.871C779.826 304.27 779.627 304.785 779.51 305.418C779.404 306.039 779.352 307.035 779.352 308.406V316H775.537ZM814.19 308.23H800.866C800.96 309.789 801.422 311.008 802.255 311.887C803.087 312.754 804.194 313.188 805.577 313.188C806.807 313.188 807.833 312.93 808.653 312.414C809.473 311.898 810.188 311.066 810.797 309.918L814.014 311.711C813.077 313.387 811.917 314.635 810.534 315.455C809.151 316.275 807.528 316.686 805.665 316.686C802.993 316.686 800.866 315.871 799.284 314.242C797.702 312.613 796.911 310.439 796.911 307.721C796.911 305.107 797.725 302.963 799.354 301.287C800.995 299.6 803.098 298.756 805.665 298.756C808.348 298.756 810.44 299.523 811.94 301.059C813.44 302.594 814.19 304.744 814.19 307.51V308.23ZM810.235 305.664C810.083 304.469 809.626 303.561 808.864 302.939C808.102 302.307 807.059 301.99 805.735 301.99C804.481 301.99 803.473 302.295 802.712 302.904C801.95 303.514 801.417 304.434 801.112 305.664H810.235ZM835.669 308.23H822.345C822.439 309.789 822.902 311.008 823.734 311.887C824.566 312.754 825.673 313.188 827.056 313.188C828.286 313.188 829.312 312.93 830.132 312.414C830.952 311.898 831.667 311.066 832.277 309.918L835.493 311.711C834.556 313.387 833.396 314.635 832.013 315.455C830.63 316.275 829.007 316.686 827.144 316.686C824.472 316.686 822.345 315.871 820.763 314.242C819.181 312.613 818.39 310.439 818.39 307.721C818.39 305.107 819.204 302.963 820.833 301.287C822.474 299.6 824.577 298.756 827.144 298.756C829.827 298.756 831.919 299.523 833.419 301.059C834.919 302.594 835.669 304.744 835.669 307.51V308.23ZM831.714 305.664C831.562 304.469 831.105 303.561 830.343 302.939C829.581 302.307 828.538 301.99 827.214 301.99C825.96 301.99 824.952 302.295 824.191 302.904C823.429 303.514 822.896 304.434 822.591 305.664H831.714ZM844.914 301.99C845.324 300.889 845.863 300.074 846.531 299.547C847.211 299.02 848.049 298.756 849.045 298.756C849.584 298.756 850.111 298.82 850.627 298.949C851.154 299.078 851.67 299.266 852.174 299.512L850.802 302.746C850.474 302.512 850.117 302.342 849.73 302.236C849.355 302.119 848.933 302.061 848.465 302.061C847.199 302.061 846.291 302.57 845.74 303.59C845.189 304.598 844.914 306.297 844.914 308.688V316H841.099V299.301H844.914V301.99ZM855.459 292.129C855.459 291.484 855.694 290.928 856.162 290.459C856.643 289.99 857.211 289.756 857.867 289.756C858.547 289.756 859.11 289.984 859.555 290.441C860.012 290.887 860.241 291.449 860.241 292.129C860.241 292.809 860.012 293.383 859.555 293.852C859.098 294.309 858.535 294.537 857.867 294.537C857.211 294.537 856.643 294.303 856.162 293.834C855.694 293.354 855.459 292.785 855.459 292.129ZM855.969 316V299.336H859.784V316H855.969ZM866.69 316V299.336H870.276V302.061C871.038 300.912 871.934 300.074 872.966 299.547C873.997 299.02 875.251 298.756 876.727 298.756C877.97 298.756 879.024 298.955 879.891 299.354C880.77 299.74 881.456 300.32 881.948 301.094C882.241 301.551 882.452 302.084 882.581 302.693C882.71 303.303 882.774 304.369 882.774 305.893V316H878.925V307.439C878.925 305.248 878.655 303.795 878.116 303.08C877.589 302.354 876.645 301.99 875.286 301.99C874.395 301.99 873.599 302.154 872.895 302.482C872.204 302.811 871.659 303.273 871.261 303.871C870.979 304.27 870.78 304.785 870.663 305.418C870.557 306.039 870.505 307.035 870.505 308.406V316H866.69ZM901.265 307.615C901.265 305.893 900.861 304.551 900.052 303.59C899.255 302.629 898.136 302.148 896.695 302.148C895.253 302.148 894.117 302.646 893.285 303.643C892.464 304.627 892.054 305.998 892.054 307.756C892.054 309.525 892.453 310.891 893.249 311.852C894.046 312.812 895.171 313.293 896.624 313.293C897.996 313.293 899.109 312.771 899.964 311.729C900.831 310.686 901.265 309.314 901.265 307.615ZM904.974 314.963C904.974 318.221 904.324 320.512 903.023 321.836C901.722 323.172 899.531 323.84 896.449 323.84C894.152 323.84 892.318 323.354 890.947 322.381C889.576 321.42 888.878 320.137 888.855 318.531L892.951 318.514C893.009 319.229 893.343 319.773 893.953 320.148C894.562 320.523 895.417 320.711 896.519 320.711C898.148 320.711 899.32 320.354 900.035 319.639C900.749 318.924 901.113 317.729 901.124 316.053L901.16 313.838C900.48 314.799 899.683 315.514 898.769 315.982C897.867 316.451 896.83 316.686 895.658 316.686C893.302 316.686 891.445 315.883 890.085 314.277C888.738 312.66 888.064 310.451 888.064 307.65C888.064 304.99 888.755 302.846 890.138 301.217C891.521 299.576 893.326 298.756 895.552 298.756C896.912 298.756 898.072 299.043 899.033 299.617C900.005 300.18 900.714 300.994 901.16 302.061V299.336H904.974V314.963ZM460.07 355.221H463.585C465.519 355.221 466.966 355.092 467.927 354.834C468.9 354.576 469.743 354.143 470.458 353.533C471.431 352.701 472.158 351.67 472.638 350.439C473.13 349.197 473.376 347.756 473.376 346.115C473.376 344.475 473.13 343.039 472.638 341.809C472.158 340.566 471.431 339.529 470.458 338.697C469.732 338.088 468.859 337.654 467.839 337.396C466.831 337.139 465.249 337.01 463.093 337.01H461.581H460.07V355.221ZM455.886 359V333.266H461.529C465.197 333.266 467.775 333.453 469.263 333.828C470.763 334.191 472.075 334.807 473.2 335.674C474.689 336.811 475.814 338.27 476.575 340.051C477.349 341.832 477.736 343.865 477.736 346.15C477.736 348.436 477.349 350.463 476.575 352.232C475.814 353.99 474.689 355.443 473.2 356.592C472.075 357.459 470.792 358.08 469.351 358.455C467.921 358.818 465.689 359 462.654 359H461.529H455.886ZM499.707 351.23H486.383C486.476 352.789 486.939 354.008 487.771 354.887C488.603 355.754 489.711 356.188 491.094 356.188C492.324 356.188 493.349 355.93 494.17 355.414C494.99 354.898 495.705 354.066 496.314 352.918L499.531 354.711C498.594 356.387 497.433 357.635 496.051 358.455C494.668 359.275 493.045 359.686 491.181 359.686C488.51 359.686 486.383 358.871 484.801 357.242C483.219 355.613 482.428 353.439 482.428 350.721C482.428 348.107 483.242 345.963 484.871 344.287C486.512 342.6 488.615 341.756 491.181 341.756C493.865 341.756 495.957 342.523 497.457 344.059C498.957 345.594 499.707 347.744 499.707 350.51V351.23ZM495.752 348.664C495.599 347.469 495.142 346.561 494.381 345.939C493.619 345.307 492.576 344.99 491.252 344.99C489.998 344.99 488.99 345.295 488.228 345.904C487.467 346.514 486.933 347.434 486.629 348.664H495.752ZM503.221 355.977L506.385 354.254C506.62 355.086 507.053 355.719 507.686 356.152C508.319 356.586 509.133 356.803 510.129 356.803C510.985 356.803 511.653 356.609 512.133 356.223C512.625 355.824 512.871 355.285 512.871 354.605C512.871 353.703 512.004 352.93 510.27 352.285C509.684 352.074 509.233 351.898 508.916 351.758C507.135 351.02 505.887 350.27 505.172 349.508C504.469 348.746 504.118 347.82 504.118 346.73C504.118 345.242 504.698 344.035 505.858 343.109C507.03 342.184 508.577 341.721 510.498 341.721C511.788 341.721 512.889 341.961 513.803 342.441C514.729 342.91 515.403 343.584 515.825 344.463L513.118 346.326C512.918 345.799 512.567 345.383 512.063 345.078C511.571 344.762 510.996 344.604 510.34 344.604C509.614 344.604 509.028 344.779 508.582 345.131C508.149 345.471 507.932 345.928 507.932 346.502C507.932 347.369 508.916 348.16 510.885 348.875C511.506 349.098 511.987 349.279 512.327 349.42C513.862 350.029 514.957 350.721 515.614 351.494C516.282 352.256 516.616 353.211 516.616 354.359C516.616 356.023 516.012 357.33 514.805 358.279C513.598 359.217 511.934 359.686 509.813 359.686C508.184 359.686 506.83 359.381 505.752 358.771C504.674 358.162 503.83 357.23 503.221 355.977ZM521.571 335.129C521.571 334.484 521.806 333.928 522.274 333.459C522.755 332.99 523.323 332.756 523.979 332.756C524.659 332.756 525.222 332.984 525.667 333.441C526.124 333.887 526.353 334.449 526.353 335.129C526.353 335.809 526.124 336.383 525.667 336.852C525.21 337.309 524.647 337.537 523.979 337.537C523.323 337.537 522.755 337.303 522.274 336.834C521.806 336.354 521.571 335.785 521.571 335.129ZM522.081 359V342.336H525.896V359H522.081ZM544.773 350.615C544.773 348.893 544.369 347.551 543.56 346.59C542.763 345.629 541.644 345.148 540.203 345.148C538.761 345.148 537.625 345.646 536.792 346.643C535.972 347.627 535.562 348.998 535.562 350.756C535.562 352.525 535.96 353.891 536.757 354.852C537.554 355.812 538.679 356.293 540.132 356.293C541.503 356.293 542.617 355.771 543.472 354.729C544.339 353.686 544.773 352.314 544.773 350.615ZM548.482 357.963C548.482 361.221 547.832 363.512 546.531 364.836C545.23 366.172 543.039 366.84 539.957 366.84C537.66 366.84 535.826 366.354 534.455 365.381C533.083 364.42 532.386 363.137 532.363 361.531L536.458 361.514C536.517 362.229 536.851 362.773 537.46 363.148C538.07 363.523 538.925 363.711 540.027 363.711C541.656 363.711 542.828 363.354 543.542 362.639C544.257 361.924 544.621 360.729 544.632 359.053L544.667 356.838C543.988 357.799 543.191 358.514 542.277 358.982C541.375 359.451 540.337 359.686 539.166 359.686C536.81 359.686 534.953 358.883 533.593 357.277C532.246 355.66 531.572 353.451 531.572 350.65C531.572 347.99 532.263 345.846 533.646 344.217C535.029 342.576 536.833 341.756 539.06 341.756C540.419 341.756 541.58 342.043 542.541 342.617C543.513 343.18 544.222 343.994 544.667 345.061V342.336H548.482V357.963ZM555.195 359V342.336H558.781V345.061C559.543 343.912 560.44 343.074 561.471 342.547C562.502 342.02 563.756 341.756 565.232 341.756C566.475 341.756 567.529 341.955 568.397 342.354C569.275 342.74 569.961 343.32 570.453 344.094C570.746 344.551 570.957 345.084 571.086 345.693C571.215 346.303 571.279 347.369 571.279 348.893V359H567.43V350.439C567.43 348.248 567.16 346.795 566.621 346.08C566.094 345.354 565.15 344.99 563.791 344.99C562.9 344.99 562.104 345.154 561.4 345.482C560.709 345.811 560.164 346.273 559.766 346.871C559.484 347.27 559.285 347.785 559.168 348.418C559.063 349.039 559.01 350.035 559.01 351.406V359H555.195ZM675.544 348.893H682.716L680.08 343.021C679.927 342.646 679.769 342.219 679.605 341.738C679.441 341.246 679.277 340.701 679.113 340.104C678.972 340.666 678.82 341.193 678.656 341.686C678.503 342.166 678.345 342.611 678.181 343.021L675.544 348.893ZM687.111 359L684.193 352.373H673.997L671.009 359H666.615L679.078 332.246L691.523 359H687.111ZM698.887 344.99C699.297 343.889 699.836 343.074 700.504 342.547C701.184 342.02 702.021 341.756 703.018 341.756C703.557 341.756 704.084 341.82 704.6 341.949C705.127 342.078 705.643 342.266 706.146 342.512L704.775 345.746C704.447 345.512 704.09 345.342 703.703 345.236C703.328 345.119 702.906 345.061 702.438 345.061C701.172 345.061 700.264 345.57 699.713 346.59C699.162 347.598 698.887 349.297 698.887 351.688V359H695.072V342.301H698.887V344.99ZM710.663 359V345.676H707.745V342.336H710.663V336.025H714.477V342.336H717.395V345.676H714.477V359H710.663Z" fill="#335320"/>
</svg>
