<svg width="302" height="25" viewBox="0 0 302 25" fill="none" xmlns="http://www.w3.org/2000/svg">
<path d="M14.7383 6.01562C13.9492 5.34375 13.1133 4.83984 12.2305 4.50391C11.3555 4.16797 10.4336 4 9.46484 4C7.58984 4 6.0625 4.60156 4.88281 5.80469C3.71094 7.00781 3.125 8.56641 3.125 10.4805C3.125 12.332 3.69531 13.8594 4.83594 15.0625C5.98438 16.2656 7.42969 16.8672 9.17188 16.8672C10.1875 16.8672 11.1523 16.6875 12.0664 16.3281C12.9883 15.9688 13.8711 15.4258 14.7148 14.6992V17.8516C13.9648 18.3906 13.1484 18.793 12.2656 19.0586C11.3828 19.3242 10.4258 19.457 9.39453 19.457C8.08203 19.457 6.86719 19.2422 5.75 18.8125C4.64062 18.3828 3.66406 17.75 2.82031 16.9141C1.98438 16.0938 1.33984 15.1289 0.886719 14.0195C0.441406 12.9023 0.21875 11.7148 0.21875 10.457C0.21875 9.19922 0.441406 8.01953 0.886719 6.91797C1.33984 5.80859 1.99219 4.83594 2.84375 4C3.69531 3.15625 4.67188 2.51953 5.77344 2.08984C6.875 1.65234 8.06641 1.43359 9.34766 1.43359C10.3555 1.43359 11.3164 1.58203 12.2305 1.87891C13.1445 2.16797 14.0312 2.60937 14.8906 3.20312L14.7383 6.01562ZM19.0616 19V0.835938H21.6045V19H19.0616ZM25.9864 3.08594C25.9864 2.65625 26.1427 2.28516 26.4552 1.97266C26.7755 1.66016 27.1544 1.50391 27.5919 1.50391C28.045 1.50391 28.42 1.65625 28.7169 1.96094C29.0216 2.25781 29.1739 2.63281 29.1739 3.08594C29.1739 3.53906 29.0216 3.92187 28.7169 4.23438C28.4122 4.53906 28.0372 4.69141 27.5919 4.69141C27.1544 4.69141 26.7755 4.53516 26.4552 4.22266C26.1427 3.90234 25.9864 3.52344 25.9864 3.08594ZM26.3263 19V7.89062H28.8692V19H26.3263ZM41.7706 11.0547C41.38 10.625 40.923 10.2969 40.3995 10.0703C39.8839 9.84375 39.3253 9.73047 38.7238 9.73047C37.6847 9.73047 36.8527 10.0664 36.2277 10.7383C35.6027 11.4102 35.2902 12.3008 35.2902 13.4102C35.2902 14.5664 35.6027 15.4766 36.2277 16.1406C36.8605 16.7969 37.7316 17.125 38.8409 17.125C39.4581 17.125 40.0089 17.0117 40.4933 16.7852C40.9777 16.5508 41.4034 16.1992 41.7706 15.7305V18.6602C41.3019 18.9258 40.798 19.125 40.2589 19.2578C39.7277 19.3906 39.1613 19.457 38.5597 19.457C36.8175 19.457 35.3956 18.9023 34.2941 17.793C33.2003 16.6836 32.6534 15.2461 32.6534 13.4805C32.6534 11.6914 33.2198 10.25 34.3527 9.15625C35.4933 8.05469 36.9816 7.50391 38.8175 7.50391C39.3956 7.50391 39.9269 7.5625 40.4113 7.67969C40.8956 7.78906 41.3488 7.96094 41.7706 8.19531V11.0547ZM45.3322 19V0.835938H47.8752V12.4961L52.5275 7.89062H55.6681L50.6291 12.7891L56.1486 19H52.8673L47.8752 13.2695V19H45.3322ZM67.4905 19V10.1172H65.5452V7.89062H67.4905V3.68359H70.0334V7.89062H71.9788V10.1172H70.0334V19H67.4905ZM83.8723 13.4805C83.8723 12.4492 83.5403 11.5781 82.8763 10.8672C82.2122 10.1484 81.3997 9.78906 80.4388 9.78906C79.4856 9.78906 78.6731 10.1484 78.0013 10.8672C77.3372 11.5781 77.0052 12.4492 77.0052 13.4805C77.0052 14.5117 77.3372 15.3867 78.0013 16.1055C78.6731 16.8164 79.4856 17.1719 80.4388 17.1719C81.3919 17.1719 82.2005 16.8164 82.8645 16.1055C83.5364 15.3867 83.8723 14.5117 83.8723 13.4805ZM74.3216 13.457C74.3216 12.6445 74.4739 11.8789 74.7786 11.1602C75.0911 10.4336 75.5364 9.78906 76.1145 9.22656C76.6848 8.67188 77.3411 8.24609 78.0833 7.94922C78.8255 7.65234 79.6028 7.50391 80.4153 7.50391C81.2513 7.50391 82.0364 7.65234 82.7708 7.94922C83.513 8.24609 84.177 8.68359 84.763 9.26172C85.3489 9.83203 85.7942 10.4766 86.0989 11.1953C86.4036 11.9141 86.5559 12.668 86.5559 13.457C86.5559 14.2773 86.4036 15.0469 86.0989 15.7656C85.802 16.4844 85.3645 17.1211 84.7864 17.6758C84.177 18.2617 83.5013 18.7031 82.7591 19C82.0169 19.3047 81.2356 19.457 80.4153 19.457C79.6106 19.457 78.8372 19.3047 78.095 19C77.3528 18.7031 76.6927 18.2695 76.1145 17.6992C75.5286 17.1211 75.0833 16.4727 74.7786 15.7539C74.4739 15.0352 74.3216 14.2695 74.3216 13.457ZM97.1361 16.9844L99.2455 15.8359C99.4017 16.3906 99.6908 16.8125 100.113 17.1016C100.535 17.3906 101.077 17.5352 101.742 17.5352C102.312 17.5352 102.757 17.4062 103.077 17.1484C103.406 16.8828 103.57 16.5234 103.57 16.0703C103.57 15.4688 102.992 14.9531 101.835 14.5234C101.445 14.3828 101.144 14.2656 100.933 14.1719C99.7455 13.6797 98.9134 13.1797 98.4369 12.6719C97.9681 12.1641 97.7337 11.5469 97.7337 10.8203C97.7337 9.82812 98.1205 9.02344 98.8939 8.40625C99.6752 7.78906 100.706 7.48047 101.988 7.48047C102.847 7.48047 103.581 7.64062 104.191 7.96094C104.808 8.27344 105.257 8.72266 105.538 9.30859L103.734 10.5508C103.601 10.1992 103.367 9.92188 103.031 9.71875C102.702 9.50781 102.32 9.40234 101.882 9.40234C101.398 9.40234 101.007 9.51953 100.71 9.75391C100.421 9.98047 100.277 10.2852 100.277 10.668C100.277 11.2461 100.933 11.7734 102.245 12.25C102.66 12.3984 102.98 12.5195 103.206 12.6133C104.23 13.0195 104.96 13.4805 105.398 13.9961C105.843 14.5039 106.066 15.1406 106.066 15.9062C106.066 17.0156 105.663 17.8867 104.859 18.5195C104.054 19.1445 102.945 19.457 101.531 19.457C100.445 19.457 99.5423 19.2539 98.8236 18.8477C98.1048 18.4414 97.5423 17.8203 97.1361 16.9844ZM120.291 13.8203H111.409C111.471 14.8594 111.78 15.6719 112.334 16.2578C112.889 16.8359 113.627 17.125 114.549 17.125C115.37 17.125 116.053 16.9531 116.6 16.6094C117.147 16.2656 117.623 15.7109 118.03 14.9453L120.174 16.1406C119.549 17.2578 118.776 18.0898 117.854 18.6367C116.932 19.1836 115.85 19.457 114.608 19.457C112.827 19.457 111.409 18.9141 110.354 17.8281C109.299 16.7422 108.772 15.293 108.772 13.4805C108.772 11.7383 109.315 10.3086 110.401 9.19141C111.495 8.06641 112.897 7.50391 114.608 7.50391C116.397 7.50391 117.791 8.01562 118.791 9.03906C119.791 10.0625 120.291 11.4961 120.291 13.3398V13.8203ZM117.655 12.1094C117.553 11.3125 117.248 10.707 116.741 10.293C116.233 9.87109 115.537 9.66016 114.655 9.66016C113.819 9.66016 113.147 9.86328 112.639 10.2695C112.131 10.6758 111.776 11.2891 111.573 12.1094H117.655ZM134.611 13.8203H125.728C125.79 14.8594 126.099 15.6719 126.654 16.2578C127.208 16.8359 127.947 17.125 128.869 17.125C129.689 17.125 130.372 16.9531 130.919 16.6094C131.466 16.2656 131.943 15.7109 132.349 14.9453L134.494 16.1406C133.869 17.2578 133.095 18.0898 132.173 18.6367C131.251 19.1836 130.169 19.457 128.927 19.457C127.146 19.457 125.728 18.9141 124.673 17.8281C123.619 16.7422 123.091 15.293 123.091 13.4805C123.091 11.7383 123.634 10.3086 124.72 9.19141C125.814 8.06641 127.216 7.50391 128.927 7.50391C130.716 7.50391 132.111 8.01562 133.111 9.03906C134.111 10.0625 134.611 11.4961 134.611 13.3398V13.8203ZM131.974 12.1094C131.872 11.3125 131.568 10.707 131.06 10.293C130.552 9.87109 129.857 9.66016 128.974 9.66016C128.138 9.66016 127.466 9.86328 126.958 10.2695C126.451 10.6758 126.095 11.2891 125.892 12.1094H131.974ZM147.031 19V10.1172H145.085V7.89062H147.031V3.68359H149.574V7.89062H151.519V10.1172H149.574V19H147.031ZM154.682 19V0.835938H157.073V9.70703C157.581 8.94141 158.178 8.38281 158.866 8.03125C159.553 7.67969 160.389 7.50391 161.374 7.50391C162.202 7.50391 162.905 7.63672 163.483 7.90234C164.069 8.16016 164.526 8.54688 164.854 9.0625C165.049 9.36719 165.19 9.72266 165.276 10.1289C165.362 10.5352 165.405 11.2461 165.405 12.2617V19H162.838V13.293C162.838 11.832 162.659 10.8633 162.299 10.3867C161.948 9.90234 161.319 9.66016 160.413 9.66016C159.819 9.66016 159.288 9.76953 158.819 9.98828C158.358 10.207 157.995 10.5156 157.729 10.9141C157.542 11.1797 157.409 11.5234 157.331 11.9453C157.26 12.3594 157.225 13.0234 157.225 13.9375V19H154.682ZM180.451 13.8203H171.568C171.63 14.8594 171.939 15.6719 172.494 16.2578C173.048 16.8359 173.787 17.125 174.709 17.125C175.529 17.125 176.212 16.9531 176.759 16.6094C177.306 16.2656 177.783 15.7109 178.189 14.9453L180.334 16.1406C179.709 17.2578 178.935 18.0898 178.013 18.6367C177.091 19.1836 176.009 19.457 174.767 19.457C172.986 19.457 171.568 18.9141 170.513 17.8281C169.459 16.7422 168.931 15.293 168.931 13.4805C168.931 11.7383 169.474 10.3086 170.56 9.19141C171.654 8.06641 173.056 7.50391 174.767 7.50391C176.556 7.50391 177.951 8.01562 178.951 9.03906C179.951 10.0625 180.451 11.4961 180.451 13.3398V13.8203ZM177.814 12.1094C177.712 11.3125 177.408 10.707 176.9 10.293C176.392 9.87109 175.697 9.66016 174.814 9.66016C173.978 9.66016 173.306 9.86328 172.798 10.2695C172.291 10.6758 171.935 11.2891 171.732 12.1094H177.814ZM194.734 13.4102C194.734 14.5586 195.019 15.4766 195.59 16.1641C196.168 16.8516 196.925 17.1953 197.863 17.1953C198.824 17.1953 199.566 16.875 200.09 16.2344C200.621 15.5938 200.886 14.6836 200.886 13.5039C200.886 12.332 200.609 11.418 200.054 10.7617C199.507 10.0977 198.754 9.76562 197.793 9.76562C196.832 9.76562 196.082 10.0859 195.543 10.7266C195.004 11.3672 194.734 12.2617 194.734 13.4102ZM192.273 24.2266V7.89062H194.816V9.70703C195.113 9.00391 195.586 8.46094 196.234 8.07812C196.89 7.69531 197.672 7.50391 198.578 7.50391C200.054 7.50391 201.25 8.05078 202.164 9.14453C203.086 10.2305 203.547 11.6602 203.547 13.4336C203.547 15.3008 203.093 16.7734 202.187 17.8516C201.289 18.9219 200.054 19.457 198.484 19.457C197.703 19.457 197.007 19.3008 196.398 18.9883C195.797 18.6758 195.269 18.1992 194.816 17.5586V24.2266H192.273ZM209.745 9.66016C210.018 8.92578 210.378 8.38281 210.823 8.03125C211.276 7.67969 211.835 7.50391 212.499 7.50391C212.858 7.50391 213.21 7.54688 213.553 7.63281C213.905 7.71875 214.249 7.84375 214.585 8.00781L213.671 10.1641C213.452 10.0078 213.214 9.89453 212.956 9.82422C212.706 9.74609 212.425 9.70703 212.112 9.70703C211.268 9.70703 210.663 10.0469 210.296 10.7266C209.928 11.3984 209.745 12.5312 209.745 14.125V19H207.202V7.86719H209.745V9.66016ZM225.728 13.4805C225.728 12.4492 225.396 11.5781 224.732 10.8672C224.068 10.1484 223.256 9.78906 222.295 9.78906C221.342 9.78906 220.529 10.1484 219.857 10.8672C219.193 11.5781 218.861 12.4492 218.861 13.4805C218.861 14.5117 219.193 15.3867 219.857 16.1055C220.529 16.8164 221.342 17.1719 222.295 17.1719C223.248 17.1719 224.056 16.8164 224.72 16.1055C225.392 15.3867 225.728 14.5117 225.728 13.4805ZM216.178 13.457C216.178 12.6445 216.33 11.8789 216.635 11.1602C216.947 10.4336 217.392 9.78906 217.97 9.22656C218.541 8.67188 219.197 8.24609 219.939 7.94922C220.681 7.65234 221.459 7.50391 222.271 7.50391C223.107 7.50391 223.892 7.65234 224.627 7.94922C225.369 8.24609 226.033 8.68359 226.619 9.26172C227.205 9.83203 227.65 10.4766 227.955 11.1953C228.26 11.9141 228.412 12.668 228.412 13.457C228.412 14.2773 228.26 15.0469 227.955 15.7656C227.658 16.4844 227.22 17.1211 226.642 17.6758C226.033 18.2617 225.357 18.7031 224.615 19C223.873 19.3047 223.092 19.457 222.271 19.457C221.467 19.457 220.693 19.3047 219.951 19C219.209 18.7031 218.549 18.2695 217.97 17.6992C217.385 17.1211 216.939 16.4727 216.635 15.7539C216.33 15.0352 216.178 14.2695 216.178 13.457ZM232.665 19V10.1172H230.72V7.89062H232.665V3.68359H235.208V7.89062H237.153V10.1172H235.208V19H232.665ZM249.047 13.4805C249.047 12.4492 248.715 11.5781 248.051 10.8672C247.387 10.1484 246.574 9.78906 245.613 9.78906C244.66 9.78906 243.848 10.1484 243.176 10.8672C242.512 11.5781 242.18 12.4492 242.18 13.4805C242.18 14.5117 242.512 15.3867 243.176 16.1055C243.848 16.8164 244.66 17.1719 245.613 17.1719C246.566 17.1719 247.375 16.8164 248.039 16.1055C248.711 15.3867 249.047 14.5117 249.047 13.4805ZM239.496 13.457C239.496 12.6445 239.648 11.8789 239.953 11.1602C240.265 10.4336 240.711 9.78906 241.289 9.22656C241.859 8.67188 242.515 8.24609 243.258 7.94922C244 7.65234 244.777 7.50391 245.59 7.50391C246.426 7.50391 247.211 7.65234 247.945 7.94922C248.687 8.24609 249.351 8.68359 249.937 9.26172C250.523 9.83203 250.969 10.4766 251.273 11.1953C251.578 11.9141 251.73 12.668 251.73 13.457C251.73 14.2773 251.578 15.0469 251.273 15.7656C250.976 16.4844 250.539 17.1211 249.961 17.6758C249.351 18.2617 248.676 18.7031 247.933 19C247.191 19.3047 246.41 19.457 245.59 19.457C244.785 19.457 244.012 19.3047 243.269 19C242.527 18.7031 241.867 18.2695 241.289 17.6992C240.703 17.1211 240.258 16.4727 239.953 15.7539C239.648 15.0352 239.496 14.2695 239.496 13.457ZM255.983 19V10.1172H254.038V7.89062H255.983V3.68359H258.526V7.89062H260.472V10.1172H258.526V19H255.983ZM265.545 24.2266H262.932L265.978 18.0391L261.9 7.89062H264.713L266.752 13.6445C266.869 13.9961 266.971 14.3555 267.057 14.7227C267.15 15.082 267.225 15.4492 267.279 15.8242C267.381 15.4336 267.623 14.8125 268.006 13.9609L268.064 13.8203L270.807 7.89062H273.56L265.545 24.2266ZM278.376 13.4102C278.376 14.5586 278.661 15.4766 279.231 16.1641C279.81 16.8516 280.567 17.1953 281.505 17.1953C282.466 17.1953 283.208 16.875 283.731 16.2344C284.263 15.5938 284.528 14.6836 284.528 13.5039C284.528 12.332 284.251 11.418 283.696 10.7617C283.149 10.0977 282.395 9.76562 281.435 9.76562C280.474 9.76562 279.724 10.0859 279.185 10.7266C278.645 11.3672 278.376 12.2617 278.376 13.4102ZM275.915 24.2266V7.89062H278.458V9.70703C278.755 9.00391 279.228 8.46094 279.876 8.07812C280.532 7.69531 281.313 7.50391 282.22 7.50391C283.696 7.50391 284.892 8.05078 285.806 9.14453C286.728 10.2305 287.188 11.6602 287.188 13.4336C287.188 15.3008 286.735 16.7734 285.829 17.8516C284.931 18.9219 283.696 19.457 282.126 19.457C281.345 19.457 280.649 19.3008 280.04 18.9883C279.438 18.6758 278.911 18.1992 278.458 17.5586V24.2266H275.915ZM301.543 13.8203H292.66C292.723 14.8594 293.031 15.6719 293.586 16.2578C294.141 16.8359 294.879 17.125 295.801 17.125C296.621 17.125 297.305 16.9531 297.852 16.6094C298.398 16.2656 298.875 15.7109 299.281 14.9453L301.426 16.1406C300.801 17.2578 300.027 18.0898 299.105 18.6367C298.184 19.1836 297.102 19.457 295.859 19.457C294.078 19.457 292.66 18.9141 291.605 17.8281C290.551 16.7422 290.023 15.293 290.023 13.4805C290.023 11.7383 290.566 10.3086 291.652 9.19141C292.746 8.06641 294.148 7.50391 295.859 7.50391C297.648 7.50391 299.043 8.01562 300.043 9.03906C301.043 10.0625 301.543 11.4961 301.543 13.3398V13.8203ZM298.906 12.1094C298.805 11.3125 298.5 10.707 297.992 10.293C297.484 9.87109 296.789 9.66016 295.906 9.66016C295.07 9.66016 294.398 9.86328 293.891 10.2695C293.383 10.6758 293.027 11.2891 292.824 12.1094H298.906Z" fill="#223574"/>
<path d="M-1 22.457H302.434V24.1562H-1V22.457Z" fill="#223574"/>
</svg>
