<svg width="212" height="40" viewBox="0 0 212 40" fill="none" xmlns="http://www.w3.org/2000/svg">
<path d="M26.7688 16.8789C26.7167 16.6576 26.632 16.0456 26.5148 15.043C26.4107 14.2096 26.3195 13.5195 26.2414 12.9727C26.1242 13.6237 25.955 14.2747 25.7336 14.9258C25.5253 15.5768 25.2583 16.2409 24.9328 16.918L17.4523 32.1523L9.97188 16.6055C9.65938 15.9674 9.38594 15.349 9.15157 14.75C8.93021 14.151 8.7349 13.5586 8.56563 12.9727C8.55261 13.5716 8.50052 14.2031 8.40938 14.8672C8.33125 15.5182 8.20756 16.2018 8.03828 16.918L4.97188 31H0.694534L7.45235 1.19531L15.8898 19.2422C16.0201 19.5286 16.2154 20.0039 16.4758 20.668C16.7492 21.332 17.0747 22.1523 17.4523 23.1289C17.7258 22.3086 18.1555 21.2669 18.7414 20.0039C18.8977 19.6654 19.0148 19.4049 19.093 19.2227L27.3352 1.19531L34.2492 31H29.9328L26.7688 16.8789ZM42.4117 39.7109H38.0563L43.1344 29.3984L36.3375 12.4844H41.025L44.4234 22.0742C44.6188 22.6602 44.788 23.2591 44.9313 23.8711C45.0875 24.4701 45.2112 25.082 45.3023 25.707C45.4716 25.056 45.8753 24.0208 46.5133 22.6016L46.6109 22.3672L51.1813 12.4844H55.7711L42.4117 39.7109ZM77.4672 21.6836C77.4672 23.5716 77.949 25.0951 78.9125 26.2539C79.8891 27.4128 81.1456 27.9922 82.682 27.9922C84.2836 27.9922 85.5206 27.4583 86.393 26.3906C87.2784 25.3229 87.7211 23.806 87.7211 21.8398C87.7211 19.8867 87.2589 18.3633 86.3344 17.2695C85.4229 16.1628 84.1664 15.6094 82.5648 15.6094C80.9633 15.6094 79.7133 16.1432 78.8148 17.2109C77.9164 18.2786 77.4672 19.7695 77.4672 21.6836ZM77.6039 0.726562V15.5117C78.0987 14.3398 78.8865 13.4349 79.9672 12.7969C81.0609 12.1589 82.363 11.8398 83.8734 11.8398C86.3344 11.8398 88.3266 12.7513 89.85 14.5742C91.3865 16.3841 92.1547 18.7669 92.1547 21.7227C92.1547 24.8346 91.3995 27.2891 89.8891 29.0859C88.3917 30.8698 86.3344 31.7617 83.7172 31.7617C82.4151 31.7617 81.2563 31.5013 80.2406 30.9805C79.238 30.4596 78.3591 29.6654 77.6039 28.5977V31H73.3656V0.726562H77.6039ZM97.8758 4.47656C97.8758 3.76042 98.1362 3.14193 98.657 2.62109C99.1909 2.10026 99.8224 1.83984 100.552 1.83984C101.307 1.83984 101.932 2.09375 102.427 2.60156C102.934 3.09635 103.188 3.72135 103.188 4.47656C103.188 5.23177 102.934 5.86979 102.427 6.39062C101.919 6.89844 101.294 7.15234 100.552 7.15234C99.8224 7.15234 99.1909 6.89193 98.657 6.37109C98.1362 5.83724 97.8758 5.20573 97.8758 4.47656ZM98.4422 31V12.4844H102.68V31H98.4422ZM123.655 21.6836C123.655 19.7695 123.206 18.2786 122.308 17.2109C121.422 16.1432 120.179 15.6094 118.577 15.6094C116.976 15.6094 115.713 16.1628 114.788 17.2695C113.877 18.3633 113.421 19.8867 113.421 21.8398C113.421 23.806 113.864 25.3229 114.749 26.3906C115.635 27.4583 116.885 27.9922 118.499 27.9922C120.023 27.9922 121.26 27.4128 122.21 26.2539C123.174 25.0951 123.655 23.5716 123.655 21.6836ZM127.777 29.8477C127.777 33.4674 127.054 36.013 125.609 37.4844C124.163 38.9688 121.728 39.7109 118.304 39.7109C115.752 39.7109 113.714 39.1706 112.191 38.0898C110.667 37.0221 109.892 35.5964 109.866 33.8125L114.417 33.793C114.482 34.5872 114.853 35.1927 115.53 35.6094C116.208 36.026 117.158 36.2344 118.382 36.2344C120.192 36.2344 121.494 35.8372 122.288 35.043C123.083 34.2487 123.486 32.9206 123.499 31.0586L123.538 28.5977C122.783 29.6654 121.898 30.4596 120.882 30.9805C119.879 31.5013 118.727 31.7617 117.425 31.7617C114.808 31.7617 112.744 30.8698 111.234 29.0859C109.736 27.2891 108.988 24.8346 108.988 21.7227C108.988 18.7669 109.756 16.3841 111.292 14.5742C112.829 12.7513 114.834 11.8398 117.308 11.8398C118.818 11.8398 120.107 12.1589 121.175 12.7969C122.256 13.4219 123.043 14.3268 123.538 15.5117V12.4844H127.777V29.8477ZM148.537 21.6836C148.537 19.7695 148.088 18.2786 147.189 17.2109C146.304 16.1432 145.06 15.6094 143.459 15.6094C141.857 15.6094 140.594 16.1628 139.67 17.2695C138.758 18.3633 138.302 19.8867 138.302 21.8398C138.302 23.806 138.745 25.3229 139.63 26.3906C140.516 27.4583 141.766 27.9922 143.38 27.9922C144.904 27.9922 146.141 27.4128 147.091 26.2539C148.055 25.0951 148.537 23.5716 148.537 21.6836ZM152.658 29.8477C152.658 33.4674 151.935 36.013 150.49 37.4844C149.045 38.9688 146.61 39.7109 143.185 39.7109C140.633 39.7109 138.595 39.1706 137.072 38.0898C135.548 37.0221 134.774 35.5964 134.748 33.8125L139.298 33.793C139.364 34.5872 139.735 35.1927 140.412 35.6094C141.089 36.026 142.039 36.2344 143.263 36.2344C145.073 36.2344 146.375 35.8372 147.17 35.043C147.964 34.2487 148.367 32.9206 148.38 31.0586L148.42 28.5977C147.664 29.6654 146.779 30.4596 145.763 30.9805C144.761 31.5013 143.608 31.7617 142.306 31.7617C139.689 31.7617 137.625 30.8698 136.115 29.0859C134.617 27.2891 133.869 24.8346 133.869 21.7227C133.869 18.7669 134.637 16.3841 136.173 14.5742C137.71 12.7513 139.715 11.8398 142.189 11.8398C143.699 11.8398 144.989 12.1589 146.056 12.7969C147.137 13.4219 147.925 14.3268 148.42 15.5117V12.4844H152.658V29.8477ZM177.949 22.3672H163.145C163.249 24.099 163.763 25.4531 164.688 26.4297C165.612 27.3932 166.842 27.875 168.379 27.875C169.746 27.875 170.885 27.5885 171.797 27.0156C172.708 26.4427 173.503 25.5182 174.18 24.2422L177.754 26.2344C176.712 28.0964 175.423 29.4831 173.887 30.3945C172.35 31.306 170.547 31.7617 168.477 31.7617C165.508 31.7617 163.145 30.8568 161.387 29.0469C159.629 27.237 158.75 24.8216 158.75 21.8008C158.75 18.8971 159.655 16.5143 161.465 14.6523C163.288 12.7773 165.625 11.8398 168.477 11.8398C171.458 11.8398 173.783 12.6927 175.449 14.3984C177.116 16.1042 177.949 18.4935 177.949 21.5664V22.3672ZM173.555 19.5156C173.385 18.1875 172.878 17.1784 172.031 16.4883C171.185 15.7852 170.026 15.4336 168.555 15.4336C167.161 15.4336 166.042 15.7721 165.195 16.4492C164.349 17.1263 163.757 18.1484 163.418 19.5156H173.555ZM181.854 27.6406L185.37 25.7266C185.63 26.651 186.112 27.3542 186.815 27.8359C187.518 28.3177 188.423 28.5586 189.53 28.5586C190.48 28.5586 191.222 28.3438 191.756 27.9141C192.303 27.4714 192.577 26.8724 192.577 26.1172C192.577 25.1146 191.613 24.2552 189.686 23.5391C189.035 23.3047 188.534 23.1094 188.182 22.9531C186.203 22.1328 184.816 21.2995 184.022 20.4531C183.241 19.6068 182.85 18.5781 182.85 17.3672C182.85 15.7135 183.495 14.3724 184.784 13.3438C186.086 12.3151 187.804 11.8008 189.94 11.8008C191.372 11.8008 192.596 12.0677 193.612 12.6016C194.64 13.1224 195.389 13.8711 195.858 14.8477L192.85 16.918C192.629 16.332 192.238 15.8698 191.678 15.5312C191.131 15.1797 190.493 15.0039 189.764 15.0039C188.957 15.0039 188.306 15.1992 187.811 15.5898C187.329 15.9674 187.088 16.4753 187.088 17.1133C187.088 18.0768 188.182 18.9557 190.37 19.75C191.06 19.9974 191.593 20.1992 191.971 20.3555C193.677 21.0326 194.894 21.8008 195.623 22.6602C196.366 23.5065 196.737 24.5677 196.737 25.8438C196.737 27.6927 196.066 29.1445 194.725 30.1992C193.384 31.2409 191.535 31.7617 189.178 31.7617C187.368 31.7617 185.864 31.4232 184.666 30.7461C183.468 30.069 182.531 29.0339 181.854 27.6406ZM203.61 31V16.1953H200.368V12.4844H203.61V5.47266H207.848V12.4844H211.091V16.1953H207.848V31H203.61Z" fill="black"/>
</svg>
