<svg width="330" height="90" viewBox="0 0 330 90" fill="none" xmlns="http://www.w3.org/2000/svg">
<path d="M0.388496 70C1.7965 69.424 2.7885 68.976 3.3645 68.656C3.9405 68.272 4.3885 67.856 4.7085 67.408C5.4765 66.512 5.8605 64.912 5.8605 62.608V8.56C5.8605 6.25599 5.4765 4.65599 4.7085 3.75999C4.0045 2.86399 2.5965 2.032 0.484496 1.264L8.5485 0.687994C10.2125 0.687994 12.7725 0.591995 16.2285 0.399998C19.6845 0.207996 22.2125 0.111996 23.8125 0.111996C30.1485 0.111996 35.0445 0.367996 38.5005 0.879997C41.9565 1.392 45.2205 2.416 48.2925 3.952C51.3645 5.424 53.8285 7.696 55.6845 10.768C57.5405 13.84 58.4685 17.296 58.4685 21.136C58.4685 24.464 57.7965 27.568 56.4525 30.448C55.1085 33.328 53.1565 35.792 50.5965 37.84C48.3565 39.568 45.8285 40.816 43.0125 41.584C40.2605 42.352 36.6445 42.736 32.1645 42.736C30.5005 42.736 28.6765 42.608 26.6925 42.352V62.704C26.6925 64.88 26.9805 66.448 27.5565 67.408C28.1965 68.304 29.5085 69.168 31.4925 70H0.388496ZM26.6925 6.064V37.264L27.3645 37.168C29.9245 36.912 31.7485 36.304 32.8365 35.344C33.9245 34.32 34.8525 33.072 35.6205 31.6C36.9005 28.656 37.5405 24.88 37.5405 20.272C37.5405 12.016 36.0365 7.28 33.0285 6.064C32.1965 5.744 31.1085 5.584 29.7645 5.584C28.8685 5.584 27.8445 5.744 26.6925 6.064ZM62.2462 28.912L68.8702 27.664C72.1982 26.896 74.9822 26.064 77.2222 25.168C79.4622 24.272 82.7582 22.672 87.1102 20.368V26.8C90.9502 22.64 94.7262 20.56 98.4382 20.56C100.614 20.56 102.374 21.36 103.718 22.96C105.126 24.496 105.83 26.48 105.83 28.912C105.83 31.216 105.126 33.136 103.718 34.672C102.374 36.144 100.614 36.88 98.4382 36.88C96.2622 36.88 94.7902 36.048 94.0222 34.384L92.9662 31.792C92.5182 31.024 91.9102 30.64 91.1422 30.64C89.5422 30.64 88.1342 31.568 86.9182 33.424V62.704C86.9182 64.88 87.2382 66.448 87.8782 67.408C88.5182 68.368 89.7982 69.232 91.7182 70H62.3422C64.3902 69.232 65.7662 68.368 66.4702 67.408C67.2382 66.384 67.6222 64.816 67.6222 62.704V35.536C67.6222 31.504 65.8302 29.296 62.2462 28.912ZM109.935 45.712C109.935 38.224 112.047 32.144 116.271 27.472C120.559 22.736 126.063 20.368 132.783 20.368C139.439 20.368 144.911 22.736 149.199 27.472C153.487 32.208 155.631 38.288 155.631 45.712C155.631 53.136 153.487 59.216 149.199 63.952C144.911 68.688 139.439 71.056 132.783 71.056C126.127 71.056 120.655 68.688 116.367 63.952C112.079 59.216 109.935 53.136 109.935 45.712ZM128.079 44.656V45.712C128.079 48.272 128.079 50.736 128.079 53.104C128.143 55.472 128.399 58.256 128.847 61.456C129.359 64.592 130.639 66.16 132.687 66.16C134.799 66.16 136.111 64.592 136.623 61.456C136.879 59.664 137.071 57.552 137.199 55.12C137.327 52.688 137.391 49.552 137.391 45.712C137.391 37.392 137.103 31.92 136.527 29.296C135.951 26.608 134.735 25.264 132.879 25.264C130.703 25.264 129.423 26.544 129.039 29.104C128.655 31.6 128.399 33.968 128.271 36.208C128.143 38.448 128.079 41.264 128.079 44.656ZM173.429 84.208C177.845 84.208 180.053 82.16 180.053 78.064C180.053 72.56 176.341 69.808 168.917 69.808L166.709 69.904V35.536C166.709 34.256 166.453 33.008 165.941 31.792C165.493 30.32 163.957 29.36 161.332 28.912L167.957 27.664C171.285 26.896 174.037 26.096 176.213 25.264C178.453 24.368 181.749 22.736 186.101 20.368V73.744C186.101 76.496 185.877 78.704 185.429 80.368C184.981 82.032 184.213 83.536 183.125 84.88C180.565 87.696 176.821 89.104 171.893 89.104C168.053 89.104 165.045 88.4 162.869 86.992C160.692 85.584 159.604 83.664 159.604 81.232C159.604 78.992 160.34 77.232 161.812 75.952C163.285 74.672 165.333 74.032 167.957 74.032C170.069 74.032 171.829 74.608 173.237 75.76C174.709 76.976 175.445 78.48 175.445 80.272C175.445 81.744 174.773 83.056 173.429 84.208ZM164.789 8.56C164.789 5.616 165.685 3.504 167.477 2.224C169.269 0.943998 172.181 0.303999 176.213 0.303999C183.445 0.303999 187.061 3.056 187.061 8.56C187.061 11.504 186.165 13.616 184.373 14.896C182.581 16.176 179.669 16.816 175.637 16.816C168.405 16.816 164.789 14.064 164.789 8.56ZM239.085 43.024H213.453V44.464C213.453 49.072 214.637 52.784 217.005 55.6C219.373 58.352 222.541 59.728 226.509 59.728C231.309 59.728 235.533 57.552 239.181 53.2C238.349 58.512 235.981 62.864 232.077 66.256C228.173 69.648 223.533 71.344 218.157 71.344C211.757 71.344 206.509 69.136 202.413 64.72C198.381 60.24 196.365 54.512 196.365 47.536C196.365 39.984 198.541 33.616 202.893 28.432C207.309 23.184 212.717 20.56 219.117 20.56C224.621 20.56 229.325 22.576 233.229 26.608C237.133 30.64 239.085 35.536 239.085 41.296V43.024ZM213.453 38.032H221.901V36.592C221.901 33.2 221.517 30.608 220.749 28.816C220.045 27.024 218.989 26.128 217.581 26.128C214.829 26.128 213.453 29.616 213.453 36.592V38.032ZM287.878 24.4L279.718 38.704C279.718 35.12 278.854 32.016 277.126 29.392C275.462 26.768 273.574 25.456 271.462 25.456C269.414 25.456 267.782 26.8 266.566 29.488C265.414 32.112 264.838 35.792 264.838 40.528C264.838 46.416 265.894 50.96 268.006 54.16C270.118 57.36 273.094 58.96 276.934 58.96C281.222 58.96 285.254 56.432 289.03 51.376C287.942 57.456 285.51 62.32 281.734 65.968C277.958 69.616 273.414 71.44 268.102 71.44C262.086 71.44 257.094 69.2 253.126 64.72C249.158 60.176 247.174 54.448 247.174 47.536C247.174 39.728 249.702 33.232 254.758 28.048C259.814 22.864 266.15 20.272 273.766 20.272C279.078 20.272 283.782 21.648 287.878 24.4ZM290.953 27.28V23.344L296.137 21.712C299.657 20.368 303.113 18.352 306.505 15.664C308.489 13.872 310.217 12.08 311.689 10.288C313.417 8.24 315.177 5.616 316.969 2.41599V21.712H329.257V27.28H316.969V58C316.969 59.344 317.257 60.4 317.833 61.168C318.409 61.872 319.241 62.224 320.329 62.224C321.609 62.224 322.921 61.744 324.265 60.784C325.609 59.76 326.665 58.512 327.433 57.04C326.857 61.008 324.969 64.368 321.769 67.12C318.569 69.872 314.921 71.248 310.825 71.248C306.921 71.248 303.721 70.096 301.225 67.792C298.793 65.424 297.577 62.384 297.577 58.672V27.28H290.953Z" fill="#223574"/>
</svg>
