<svg width="605" height="138" viewBox="0 0 605 138" fill="none" xmlns="http://www.w3.org/2000/svg">
<g opacity="0.5" filter="url(#filter0_d_35_19)">
<rect width="121" height="122" transform="translate(4)" fill="black"/>
<path fill-rule="evenodd" clip-rule="evenodd" d="M64.5 15.25C52.1762 15.25 50.6334 15.3019 45.7934 15.5245C40.9625 15.7471 37.6622 16.5218 34.7763 17.6534C31.7513 18.8002 29.0077 20.5997 26.7389 22.9299C24.4315 25.2148 22.6457 27.9792 21.5057 31.0307C20.3895 33.9404 19.6181 37.271 19.3973 42.1419C19.1795 47.0188 19.125 48.5713 19.125 61C19.125 73.4287 19.1764 74.9812 19.3973 79.8612C19.6181 84.732 20.3864 88.0596 21.5087 90.9693C22.6461 94.0193 24.4308 96.7856 26.7419 99.0731C29.0081 101.4 31.7499 103.2 34.7763 104.35C37.6622 105.478 40.9625 106.253 45.7934 106.475C50.6334 106.698 52.1762 106.75 64.5 106.75C76.8239 106.75 78.3666 106.698 83.2066 106.475C88.0375 106.253 91.3378 105.478 94.2237 104.347C97.2487 103.2 99.9923 101.4 102.261 99.0701C104.568 96.7852 106.354 94.0208 107.494 90.9693C108.614 88.0596 109.382 84.732 109.603 79.8612C109.824 74.9812 109.875 73.4257 109.875 61C109.875 48.5743 109.824 47.0188 109.603 42.1388C109.382 37.2679 108.614 33.9404 107.491 31.0307C106.352 27.9778 104.566 25.2123 102.258 22.9268C99.9919 20.6004 97.2502 18.7998 94.2237 17.6503C91.3378 16.5249 88.0345 15.7471 83.2036 15.5245C78.3666 15.3049 76.8269 15.25 64.5 15.25ZM64.5 23.4942C76.6151 23.4942 78.052 23.5399 82.8376 23.7595C87.2601 23.9638 89.662 24.705 91.2622 25.3363C93.3797 26.1629 94.8922 27.1572 96.4803 28.7554C98.0684 30.3566 99.0516 31.8816 99.8713 34.0166C100.494 35.6301 101.233 38.0518 101.435 42.5109C101.653 47.336 101.698 48.7847 101.698 61C101.698 73.2152 101.653 74.664 101.435 79.4891C101.233 83.9482 100.498 86.3699 99.8713 87.9833C99.1451 89.9706 97.9864 91.7684 96.4803 93.2446C95.0164 94.7634 93.2333 95.9318 91.2622 96.6637C89.662 97.292 87.2601 98.0361 82.8376 98.2405C78.052 98.4601 76.6182 98.5059 64.5 98.5059C52.3819 98.5059 50.948 98.4601 46.1625 98.2405C41.7399 98.0361 39.3381 97.295 37.7378 96.6637C35.7669 95.9314 33.9838 94.7631 32.5197 93.2446C31.0138 91.7682 29.8551 89.9705 29.1287 87.9833C28.5055 86.3699 27.7674 83.9482 27.5648 79.4891C27.347 74.664 27.3016 73.2152 27.3016 61C27.3016 48.7847 27.347 47.336 27.5648 42.5109C27.7674 38.0518 28.5025 35.6301 29.1287 34.0166C29.9485 31.8816 30.9346 30.3566 32.5197 28.7554C33.9836 27.2366 35.7668 26.0683 37.7378 25.3363C39.3381 24.708 41.7399 23.9638 46.1625 23.7595C50.948 23.5399 52.3849 23.4942 64.5 23.4942V23.4942Z" fill="#223574"/>
<path fill-rule="evenodd" clip-rule="evenodd" d="M64.5 76.2654C62.5118 76.2654 60.543 75.8706 58.7061 75.1034C56.8692 74.3362 55.2002 73.2118 53.7943 71.7943C52.3884 70.3768 51.2732 68.694 50.5123 66.8419C49.7515 64.9898 49.3599 63.0048 49.3599 61.0001C49.3599 58.9955 49.7515 57.0105 50.5123 55.1584C51.2732 53.3063 52.3884 51.6235 53.7943 50.206C55.2002 48.7885 56.8692 47.664 58.7061 46.8969C60.543 46.1297 62.5118 45.7349 64.5 45.7349C68.5154 45.7349 72.3664 47.3432 75.2057 50.206C78.045 53.0688 79.6401 56.9516 79.6401 61.0001C79.6401 65.0487 78.045 68.9315 75.2057 71.7943C72.3664 74.6571 68.5154 76.2654 64.5 76.2654V76.2654ZM64.5 37.4846C58.3144 37.4846 52.3822 39.9622 48.0083 44.3722C43.6345 48.7822 41.1772 54.7634 41.1772 61.0001C41.1772 67.2368 43.6345 73.2181 48.0083 77.6281C52.3822 82.0381 58.3144 84.5156 64.5 84.5156C70.6856 84.5156 76.6178 82.0381 80.9917 77.6281C85.3655 73.2181 87.8227 67.2368 87.8227 61.0001C87.8227 54.7634 85.3655 48.7822 80.9917 44.3722C76.6178 39.9622 70.6856 37.4846 64.5 37.4846V37.4846ZM94.6078 37.0576C94.6078 38.5319 94.027 39.9457 92.9931 40.9882C91.9592 42.0306 90.5569 42.6163 89.0947 42.6163C87.6326 42.6163 86.2303 42.0306 85.1964 40.9882C84.1625 39.9457 83.5817 38.5319 83.5817 37.0576C83.5817 35.5834 84.1625 34.1696 85.1964 33.1271C86.2303 32.0847 87.6326 31.499 89.0947 31.499C90.5569 31.499 91.9592 32.0847 92.9931 33.1271C94.027 34.1696 94.6078 35.5834 94.6078 37.0576" fill="#223574"/>
<path d="M352.75 24.7169V98.2831C352.75 99.9651 352.088 101.578 350.909 102.767C349.73 103.957 348.131 104.625 346.463 104.625H273.537C271.869 104.625 270.27 103.957 269.091 102.767C267.912 101.578 267.25 99.9651 267.25 98.2831V24.7169C267.25 23.0349 267.912 21.4218 269.091 20.2325C270.27 19.0432 271.869 18.375 273.537 18.375H346.463C348.131 18.375 349.73 19.0432 350.909 20.2325C352.088 21.4218 352.75 23.0349 352.75 24.7169V24.7169ZM292.397 51.3529H279.824V91.9412H292.397V51.3529ZM293.529 37.4007C293.535 36.4413 293.355 35.49 292.997 34.601C292.639 33.7121 292.111 32.9029 291.443 32.2198C290.775 31.5367 289.981 30.9929 289.104 30.6196C288.228 30.2463 287.288 30.0508 286.337 30.0441H286.11C284.176 30.0441 282.321 30.8192 280.954 32.1988C279.586 33.5785 278.818 35.4496 278.818 37.4007C278.818 39.3518 279.586 41.223 280.954 42.6026C282.321 43.9823 284.176 44.7574 286.11 44.7574V44.7574C287.061 44.781 288.008 44.6153 288.896 44.2698C289.783 43.9243 290.595 43.4057 291.284 42.7437C291.972 42.0817 292.525 41.2893 292.911 40.4117C293.296 39.5341 293.506 38.5886 293.529 37.629V37.4007ZM340.176 67.2838C340.176 55.082 332.481 50.3382 324.837 50.3382C322.334 50.2118 319.842 50.7496 317.609 51.898C315.376 53.0464 313.481 54.7652 312.112 56.8831H311.76V51.3529H299.941V91.9412H312.515V70.3533C312.333 68.1423 313.023 65.9483 314.436 64.2479C315.848 62.5475 317.869 61.4779 320.059 61.2717H320.537C324.535 61.2717 327.502 63.8085 327.502 70.2011V91.9412H340.076L340.176 67.2838Z" fill="black"/>
<path d="M583.123 52.9502C583.177 53.795 583.177 54.6399 583.177 55.4925C583.177 81.4724 564.947 111.435 531.613 111.435V111.42C521.766 111.435 512.123 108.375 503.833 102.605C505.265 102.792 506.704 102.885 508.147 102.889C516.307 102.897 524.235 99.9266 530.655 94.4565C522.9 94.2969 516.099 88.8113 513.724 80.8028C516.44 81.3712 519.239 81.2544 521.906 80.464C513.451 78.6108 507.368 70.5517 507.368 61.1923C507.368 61.1066 507.368 61.0248 507.368 60.9431C509.887 62.4654 512.708 63.3102 515.593 63.4036C507.63 57.6299 505.175 46.1369 509.984 37.1512C519.185 49.4345 532.761 56.9019 547.334 57.6922C545.874 50.8634 547.869 43.7075 552.577 38.9071C559.876 31.4631 571.356 31.8446 578.218 39.7597C582.276 38.8915 586.167 37.2758 589.726 34.9865C588.374 39.5378 585.542 43.4038 581.76 45.8605C585.352 45.4011 588.862 44.3577 592.167 42.7653C589.734 46.7209 586.669 50.1665 583.123 52.9502Z" fill="black"/>
</g>
<defs>
<filter id="filter0_d_35_19" x="0" y="0" width="605" height="138" filterUnits="userSpaceOnUse" color-interpolation-filters="sRGB">
<feFlood flood-opacity="0" result="BackgroundImageFix"/>
<feColorMatrix in="SourceAlpha" type="matrix" values="0 0 0 0 0 0 0 0 0 0 0 0 0 0 0 0 0 0 127 0" result="hardAlpha"/>
<feOffset dy="4"/>
<feGaussianBlur stdDeviation="2"/>
<feComposite in2="hardAlpha" operator="out"/>
<feColorMatrix type="matrix" values="0 0 0 0 0 0 0 0 0 0 0 0 0 0 0 0 0 0 0.25 0"/>
<feBlend mode="normal" in2="BackgroundImageFix" result="effect1_dropShadow_35_19"/>
<feBlend mode="normal" in="SourceGraphic" in2="effect1_dropShadow_35_19" result="shape"/>
</filter>
</defs>
</svg>
